<?xml version="1.0" encoding="UTF-8" standalone="no"?>
<svg
   xmlns:gocart="https://go-cart.io"
   xmlns:dc="http://purl.org/dc/elements/1.1/"
   xmlns:cc="http://creativecommons.org/ns#"
   xmlns:rdf="http://www.w3.org/1999/02/22-rdf-syntax-ns#"
   xmlns:svg="http://www.w3.org/2000/svg"
   xmlns="http://www.w3.org/2000/svg"
   xmlns:sodipodi="http://sodipodi.sourceforge.net/DTD/sodipodi-0.dtd"
   xmlns:inkscape="http://www.inkscape.org/namespaces/inkscape"
   version="1.1"
   id="svg337"
   sodipodi:docname="guyana_coloured_labelled.svg"
   inkscape:version="1.0 (4035a4f, 2020-05-01)"
   height="1122.8"
   width="750.0">
  <metadata
     id="metadata78">
    <rdf:RDF>
      <cc:Work
         rdf:about="">
        <dc:format>image/svg+xml</dc:format>
        <dc:type
           rdf:resource="http://purl.org/dc/dcmitype/StillImage" />
      </cc:Work>
    </rdf:RDF>
  </metadata>
  <defs
     id="defs76" />
  <sodipodi:namedview
     inkscape:current-layer="svg337"
     inkscape:window-maximized="0"
     inkscape:window-y="23"
     inkscape:window-x="0"
     inkscape:cy="296.95389"
     inkscape:cx="389.15452"
     inkscape:zoom="1.1800502"
     showgrid="false"
     id="namedview74"
     inkscape:window-height="902"
     inkscape:window-width="1802"
     inkscape:pageshadow="2"
     inkscape:pageopacity="0"
     guidetolerance="10"
     gridtolerance="10"
     objecttolerance="10"
     borderopacity="1"
     bordercolor="#666666"
     pagecolor="#ffffff" />
  <path
     style="fill:#7570b3"
     stroke-width="1"
     stroke="#000000"
     class="region-1"
     id="polygon-1"
     d="M 160.211 224.55 159.755 223.144 160.957 220.632 160.573 219.66 158.335 218.502 159.209 212.222 158.609 209.273 157.571 207.198 154.914 205.337 150.944 205.594 148.797 204.94 145.831 202.069 142.982 203.002 141.138 202.722 140.228 202.862 139.13 203.586 137.145 203.983 133.666 206.808 131.705 211.688 129.108 210.33 126.498 207.952 126.124 207.462 125.821 206.855 124.537 203.866 122.318 203.353 120.1 200.854 119.073 198.963 117.462 198.029 116.995 196.161 116.201 194.48 117.789 190.58 119.937 189.319 120.007 186.541 123.673 183.692 122.276 178.437 121.173 177.118 120.205 173.543 118.699 171.215 117.394 170.036 115.629 168.569 116.565 166.336 116.092 164.689 116.331 161.501 115.658 159.773 115.961 156.401 116.148 155.659 117.12 155.04 118.023 151.547 118.238 149.858 117.662 146.985 117.948 146.422 116.53 144.226 116.302 143.269 116.794 140.675 118.592 139.212 118.494 137.29 118.566 136.125 119.698 134.419 120.311 134.239 123.767 134.457 123.625 129.547 124.042 129.062 125.001 128.837 125.699 126.338 127.181 125.23 126.77 123.428 125.871 121.546 126.187 119.441 128.131 117.572 127.876 116.087 130.513 113.139 132.935 110.794 133.174 107.694 133.454 107.147 135.471 106.012 136.713 105.736 137.427 104.727 138.597 105.511 140.069 105.946 143.078 104.608 146.181 104.289 147.463 105.039 148.04 106.159 150.663 106.504 152.917 106.934 155.948 105.752 157.885 104.805 158.051 106.315 159.082 106.822 161.218 105.55 163.37 104.291 163.874 102.986 165.289 102.331 166.732 99.942 170.279 98.613 170.625 97.986 171.063 98.163 173.137 95.995 174.084 95.784 174.668 95.09 175.713 93.152 176.796 93.598 177.532 90.853 177.841 90.554 178.607 88.953 181.606 86.606 183.029 86.786 184.019 86.539 184.938 85.598 185.619 86.142 188.189 84.53 189.26 84.462 189.692 83.5 192.155 82.213 193.112 81.714 194.789 78.993 194.824 78.519 195.579 77.61 196.752 76.193 199.694 74.98 202.501 75.524 204.284 76.798 206.712 76.472 209.441 75.299 210.647 73.619 212.678 72.141 213.274 69.643 214.527 67.041 214.339 65.774 215.307 62.275 217.365 60.192 215.419 57.323 216.996 54.877 217.961 51.956 222.113 50.958 222.591 50.592 222.883 48.998 222.526 47.092 239.813 44.492 240.751 42.579 242.686 40.319 243.587 38.347 242.006 35.75 241.666 33.609 215.946 1.608 214.908 0.0 216.709 0.134 220.192 2.875 221.91 4.542 223.842 5.956 226.771 9.413 229.109 12.951 229.571 13.336 230.149 15.121 231.11 16.485 231.939 18.527 234.529 22.405 236.581 24.71 237.76 25.27 239.316 26.129 241.847 26.529 242.943 26.876 247.657 29.029 247.496 27.883 248.514 27.34 250.159 27.648 250.585 27.015 249.494 26.032 242.895 21.744 242.944 20.812 245.103 19.98 247.385 19.699 250.593 19.891 252.742 20.5 257.581 22.908 261.701 25.608 263.89 26.598 274.65 34.005 283.446 38.725 286.31 39.846 292.117 43.147 295.231 44.904 297.168 45.806 300.322 48.03 303.984 50.044 305.245 51.069 312.696 55.183 316.818 58.132 321.746 60.576 327.13 64.505 332.521 67.206 338.285 71.475 343.34 74.214 347.673 77.585 350.616 80.27 352.086 82.015 353.39 83.209 353.932 84.61 353.383 84.48 353.381 84.946 354.221 85.84 355.44 87.16 356.284 87.292 356.539 86.912 358.261 89.081 360.319 91.465 362.842 93.978 363.391 94.065 365.279 96.701 365.15 97.209 367.0 99.168 368.974 101.677 370.238 102.573 368.977 100.957 371.458 103.638 372.675 105.424 372.883 106.103 375.027 108.528 377.679 110.871 379.401 113.167 380.792 113.894 382.435 115.172 383.528 116.406 384.915 118.065 385.208 118.829 386.007 119.722 389.593 121.264 392.204 123.436 393.545 126.154 394.299 127.682 395.304 129.932 396.901 132.1 397.322 132.568 396.94 132.862 397.101 133.111 396.133 134.778 395.499 135.119 394.088 136.583 391.419 138.136 391.12 139.287 390.329 140.323 389.852 142.518 387.866 143.03 387.962 144.371 387.698 145.701 386.844 146.899 385.836 147.403 385.566 148.875 384.755 149.291 384.062 148.617 383.528 148.432 382.991 148.746 383.059 150.112 382.035 150.992 381.978 151.299 382.828 152.364 382.714 153.061 381.858 154.503 381.437 154.657 379.84 154.237 379.094 154.348 378.469 155.444 376.92 156.081 376.19 157.297 374.794 157.176 374.06 158.005 372.435 156.99 370.874 155.552 370.251 155.67 369.351 156.561 368.847 156.686 368.025 156.328 367.023 156.382 366.331 155.278 365.553 154.82 365.117 154.855 364.909 155.338 364.497 155.308 363.811 155.759 362.767 155.698 362.302 155.25 361.657 155.117 361.391 155.341 361.06 155.17 360.479 155.301 360.153 155.579 357.135 154.991 355.75 155.079 353.798 156.135 352.368 157.896 352.662 160.199 352.435 161.615 350.977 163.698 350.175 164.166 349.324 164.271 348.802 165.81 347.85 166.423 347.541 166.966 346.844 166.968 346.414 167.338 346.073 168.771 346.218 169.442 347.602 170.28 347.815 171.347 348.582 172.319 349.21 172.692 349.393 173.715 350.888 174.319 350.98 175.425 351.326 176.118 351.766 176.524 352.71 176.734 352.966 177.335 352.798 177.629 351.568 177.906 350.902 178.709 350.049 178.647 349.152 179.94 348.815 182.063 346.754 181.468 346.113 180.871 345.587 181.444 345.08 181.25 344.068 181.6 343.302 182.369 342.893 183.261 342.849 184.296 343.37 186.386 343.085 186.945 342.114 187.65 342.283 188.746 341.897 191.511 342.606 193.374 342.112 195.477 342.209 196.111 342.717 196.85 342.663 197.327 341.68 200.076 340.918 201.152 340.085 201.474 338.101 201.619 337.56 201.907 337.028 202.831 337.215 205.002 338.959 207.453 338.901 208.637 336.667 211.628 336.308 211.68 335.583 211.248 333.656 212.991 332.756 216.402 331.549 218.358 331.094 219.613 329.961 221.236 329.235 223.02 328.712 227.811 329.033 231.115 330.327 232.745 331.481 234.781 332.43 235.137 332.212 237.052 332.074 236.807 330.532 236.215 330.121 235.446 328.696 233.973 328.16 233.632 326.541 233.377 325.275 233.815 324.017 234.952 321.304 234.391 318.936 234.419 316.474 236.252 315.178 236.29 313.431 234.121 311.762 232.848 309.244 232.028 307.857 231.858 306.754 232.141 303.59 234.218 298.55 236.113 295.698 236.554 294.017 236.031 292.695 235.956 288.358 233.654 286.68 233.123 284.311 231.938 283.437 230.709 282.412 229.936 281.577 229.365 279.304 228.529 278.121 227.638 277.391 226.615 277.419 225.405 277.549 224.894 279.156 223.302 279.104 221.779 278.542 220.711 277.026 220.055 275.686 220.028 274.6 220.301 270.223 222.155 267.604 222.551 265.115 221.999 261.915 222.191 260.847 222.002 259.466 221.367 257.669 221.26 252.897 221.291 251.296 221.602 248.282 220.829 246.924 220.054 242.605 219.952 238.274 219.024 235.676 218.896 234.275 219.187 231.386 218.727 228.797 217.963 226.565 218.316 224.837 217.862 222.237 217.59 219.279 217.926 217.162 218.915 215.74 218.725 212.976 219.029 211.481 218.529 210.652 217.62 208.242 217.174 207.388 215.846 205.387 215.499 204.456 214.675 204.108 214.861 203.784 215.824 202.705 216.224 202.28 216.18 200.986 215.354 200.679 215.434 198.553 217.655 197.272 218.197 193.461 218.309 192.621 218.731 191.829 218.64 190.634 218.073 187.664 217.981 186.259 218.483 184.888 219.801 181.911 219.72 175.315 221.002 174.25 220.852 171.35 220.443 169.577 219.264 167.99 218.614 166.332 218.66 165.781 218.932 165.443 219.672 164.499 220.321 163.645 221.307 162.703 222.882 160.211 224.55 z "
     gocart:regionname="Barima-Waini" />
  <path
     style="fill:#d95f02"
     stroke-width="1"
     stroke="#000000"
     class="region-2"
     id="polygon-2"
     d="M 332.212 237.052 332.382 237.712 332.861 238.086 333.072 238.622 332.798 239.528 332.96 240.733 332.696 243.675 334.014 245.124 334.201 246.41 336.252 246.806 337.019 248.097 339.002 249.467 339.649 251.045 339.441 253.386 338.986 254.487 339.261 254.842 339.712 254.795 340.538 254.124 340.879 254.259 341.383 255.152 342.084 255.503 342.595 255.405 343.25 254.71 343.857 254.695 345.382 256.721 346.217 257.033 347.429 256.967 349.751 259.183 350.279 260.014 351.837 260.192 354.232 261.906 356.001 262.578 357.61 262.298 358.329 261.178 359.347 260.597 360.093 260.856 360.971 261.599 362.962 261.507 363.258 261.819 363.459 262.775 365.289 263.365 366.6 265.177 368.913 267.408 372.733 266.605 376.226 266.685 376.728 267.33 376.4 269.613 376.572 270.396 376.897 270.669 380.665 270.211 383.796 269.541 384.274 270.348 384.162 273.126 383.819 274.218 384.781 275.664 384.723 276.269 385.415 277.579 386.098 280.112 386.688 281.071 387.575 281.218 389.548 280.678 390.182 281.009 390.525 281.806 389.738 284.793 389.798 286.172 390.225 287.419 391.295 289.004 390.914 291.041 391.479 292.919 391.097 294.305 391.199 295.147 392.807 297.317 390.978 299.474 390.277 299.984 389.409 299.901 389.025 299.595 388.584 299.846 389.604 302.445 391.219 303.139 392.533 303.056 395.166 301.64 396.186 300.821 396.929 300.795 398.685 301.752 399.83 302.377 400.281 303.097 400.438 304.355 400.8 304.474 401.55 304.236 402.153 304.704 402.955 304.8 404.154 306.409 404.594 306.547 405.664 306.312 406.955 307.381 407.433 307.497 407.634 307.918 410.171 308.373 411.034 307.497 412.939 307.314 413.354 307.657 413.567 308.53 414.148 309.105 414.762 310.615 415.792 311.593 416.68 311.573 417.162 311.943 417.643 311.893 418.055 311.112 419.039 310.287 419.875 310.251 420.503 310.505 421.649 310.067 422.518 310.248 423.097 309.394 422.987 308.889 424.416 308.177 424.232 307.719 424.477 307.434 425.411 309.18 424.091 311.125 423.011 317.688 420.853 321.07 420.497 322.128 418.326 324.791 417.643 326.441 413.783 327.36 409.713 327.601 408.652 328.191 412.039 329.219 410.504 332.137 410.118 333.364 408.885 334.504 411.135 333.368 411.772 332.988 414.155 330.2 415.645 328.256 419.93 326.999 420.865 326.239 423.665 325.316 423.698 328.197 423.944 330.994 424.649 335.783 427.436 339.434 428.551 343.2 429.092 344.113 429.093 345.369 430.315 348.263 430.128 348.829 429.766 348.944 429.435 349.52 429.125 350.778 428.593 351.486 428.381 353.042 428.868 355.303 429.78 357.352 429.091 359.598 429.233 361.452 430.423 363.73 429.996 363.891 429.359 365.002 429.3 366.261 428.457 367.415 428.243 368.386 427.511 368.782 427.205 369.413 427.389 369.78 427.163 370.586 427.563 370.745 428.259 372.102 427.983 372.43 427.15 372.495 427.045 372.848 427.918 375.376 427.931 376.247 426.662 376.31 426.394 376.583 425.945 377.945 425.516 378.064 425.697 378.397 425.432 378.818 427.218 380.996 426.668 381.663 426.794 382.721 427.567 383.223 428.009 383.236 429.053 384.137 429.048 386.682 428.151 388.455 428.369 390.208 428.185 392.74 427.716 394.896 427.866 396.082 429.354 399.127 429.193 400.195 429.491 401.31 427.29 403.114 425.519 406.063 425.107 408.329 425.079 410.044 424.172 412.833 423.941 414.368 423.811 416.763 424.29 418.476 423.639 419.647 424.715 424.074 424.815 425.408 424.714 425.93 424.025 426.823 423.918 427.886 424.829 431.408 424.417 433.072 423.905 433.416 423.62 433.985 423.386 437.021 423.714 438.187 425.183 439.172 425.592 440.264 424.923 442.218 424.707 444.134 425.001 445.252 424.571 446.861 423.414 448.565 422.383 452.248 421.735 452.98 421.107 455.165 421.574 458.636 419.582 464.117 417.68 465.679 414.561 471.186 414.043 471.766 411.701 473.303 408.217 474.467 406.466 473.685 405.271 473.667 402.506 474.826 401.456 474.829 398.63 476.329 396.032 476.944 394.721 476.92 393.413 476.369 391.525 476.925 390.911 477.444 389.565 477.13 387.902 477.504 386.143 476.902 384.891 477.468 383.348 478.983 381.848 479.155 381.371 479.814 380.892 479.661 380.315 478.919 379.858 477.146 380.075 475.241 379.961 473.554 378.154 471.171 376.865 470.606 375.727 470.857 373.531 471.954 373.162 471.781 369.725 466.214 368.132 465.475 366.355 465.041 364.425 463.164 362.401 462.076 361.577 460.578 360.035 455.838 359.632 452.442 359.033 451.581 357.15 449.983 354.685 449.416 352.419 448.358 349.086 448.481 347.154 447.924 344.485 446.66 342.586 444.352 341.198 443.502 338.068 442.133 333.557 441.534 332.457 441.082 332.224 440.217 333.441 437.002 337.431 431.822 337.685 430.204 337.539 428.383 336.764 426.972 335.739 426.268 329.264 426.78 326.829 427.82 324.984 429.861 321.998 431.519 321.053 431.659 320.714 431.162 318.646 431.997 315.774 432.749 313.587 433.774 312.424 434.595 311.946 435.347 311.878 436.372 312.288 438.218 312.903 439.38 315.227 441.295 316.458 441.978 317.484 443.141 317.825 444.303 317.757 445.67 315.706 446.628 314.612 446.969 312.424 446.764 308.322 445.807 307.365 445.26 304.699 444.713 301.28 445.876 299.913 445.465 297.725 443.551 296.494 442.936 294.238 442.799 292.119 441.705 290.683 441.5 287.128 441.568 285.966 442.662 285.214 442.867 283.915 442.594 283.094 441.842 281.864 441.705 280.155 442.32 279.608 443.004 277.762 447.379 275.123 450.116 276.204 451.588 277.628 452.726 278.156 453.588 279.412 458.058 279.071 459.869 277.915 462.098 277.071 463.106 275.883 463.63 275.075 464.811 275.282 466.239 276.42 467.975 276.787 469.109 276.519 469.737 275.948 470.122 275.722 470.818 275.695 475.014 273.296 479.262 272.411 482.504 271.191 483.522 270.188 483.721 267.889 483.269 262.129 481.35 259.052 481.343 257.311 481.794 256.877 483.354 255.083 484.885 250.825 485.328 250.399 486.748 248.16 486.863 245.7 486.118 244.714 486.668 243.281 485.843 239.643 485.181 238.203 484.426 236.659 484.157 236.057 483.205 233.982 483.043 233.678 482.353 233.037 482.04 232.119 481.1 229.696 480.346 227.81 478.22 225.521 476.666 224.155 476.144 220.749 475.949 217.752 477.306 215.998 478.435 213.113 479.192 210.495 481.511 208.437 484.018 206.791 486.675 206.537 487.908 207.067 492.321 208.126 494.497 211.674 499.544 211.597 501.322 209.603 505.05 207.259 508.484 205.678 510.229 201.894 512.633 199.677 514.66 199.234 516.307 199.297 517.06 198.447 516.281 197.457 513.354 196.401 509.935 192.727 504.699 192.931 501.714 190.953 502.343 186.966 504.276 184.576 504.324 182.361 500.543 181.357 498.882 179.112 498.51 176.186 499.538 166.487 503.527 162.836 507.185 161.173 508.4 156.218 508.46 154.675 508.025 149.268 507.483 144.486 511.693 141.24 509.168 135.344 508.235 132.497 508.279 126.928 509.951 124.013 509.678 115.089 505.342 110.279 504.665 105.953 504.976 103.203 505.795 98.828 508.289 96.402 504.519 93.23 499.589 90.361 496.198 87.395 492.694 84.829 489.661 81.917 486.402 78.766 482.875 75.648 479.386 72.347 475.692 69.365 472.355 66.184 468.796 62.993 465.225 59.506 461.322 57.264 458.692 54.343 455.265 51.628 452.08 49.229 449.265 46.957 446.599 44.115 443.264 41.477 440.169 38.576 436.766 36.504 434.519 34.263 432.089 32.472 430.147 30.476 427.982 28.582 425.929 26.427 423.593 24.008 420.969 21.497 418.246 18.811 415.136 16.137 412.04 14.102 409.685 12.241 407.529 9.977 404.909 7.569 402.121 5.403 399.613 3.003 396.834 0.0 392.972 1.38 389.551 3.824 388.717 7.279 386.657 9.586 385.174 9.193 382.77 12.489 378.445 12.697 377.005 14.716 375.376 16.489 373.293 16.887 373.229 16.686 372.878 17.925 371.597 19.95 368.155 23.365 368.201 26.447 367.346 27.341 367.776 28.631 367.582 30.653 363.911 30.965 363.538 31.691 360.488 31.423 360.592 31.413 357.957 35.113 357.415 37.885 357.654 39.322 356.941 39.348 353.145 38.563 352.911 38.828 350.23 39.502 349.771 40.061 345.794 39.946 343.261 38.056 342.515 35.919 340.638 34.682 338.25 33.082 334.771 34.05 330.879 34.795 329.632 35.624 328.683 34.532 327.571 35.096 326.175 35.789 325.795 34.501 324.345 35.475 324.796 35.361 325.272 35.951 323.789 36.972 319.995 37.298 316.269 35.585 314.759 32.003 312.528 32.095 311.176 31.535 310.895 33.31 309.366 34.01 305.542 32.578 303.681 29.043 305.015 26.738 302.417 28.467 301.995 27.905 301.921 28.478 300.97 25.871 297.849 28.13 294.92 30.079 291.125 31.933 288.542 32.94 286.985 31.794 285.035 32.597 283.483 35.191 280.789 36.51 280.382 35.744 279.569 35.701 279.213 37.782 279.663 38.242 276.281 42.993 275.234 44.966 275.52 46.528 277.53 48.513 276.484 49.583 273.749 53.792 275.365 57.614 275.652 60.874 273.991 63.254 275.825 65.76 275.926 71.269 272.709 72.431 271.165 75.967 270.015 76.744 269.238 76.509 268.343 75.732 267.778 73.378 261.615 75.249 259.91 79.727 260.855 83.569 264.163 83.478 265.911 84.815 265.835 86.247 264.852 88.817 263.756 92.47 265.996 95.907 267.929 100.581 269.835 102.843 271.443 106.941 270.163 108.82 268.583 109.375 267.046 111.211 262.734 114.669 260.3 119.963 256.885 125.695 255.965 129.653 255.047 130.771 253.411 132.507 251.468 136.714 251.194 138.285 249.866 142.066 245.923 143.31 244.213 145.361 242.902 149.326 241.949 152.852 241.633 156.529 240.886 157.021 238.862 157.628 237.086 157.605 232.991 160.585 229.317 160.757 228.344 160.822 227.865 160.137 225.575 160.211 224.55 162.703 222.882 163.645 221.307 164.499 220.321 165.443 219.672 165.781 218.932 166.332 218.66 167.99 218.614 169.577 219.264 171.35 220.443 174.25 220.852 175.315 221.002 181.911 219.72 184.888 219.801 186.259 218.483 187.664 217.981 190.634 218.073 191.829 218.64 192.621 218.731 193.461 218.309 197.272 218.197 198.553 217.655 200.679 215.434 200.986 215.354 202.28 216.18 202.705 216.224 203.784 215.824 204.108 214.861 204.456 214.675 205.387 215.499 207.388 215.846 208.242 217.174 210.652 217.62 211.481 218.529 212.976 219.029 215.74 218.725 217.162 218.915 219.279 217.926 222.237 217.59 224.837 217.862 226.565 218.316 228.797 217.963 231.386 218.727 234.275 219.187 235.676 218.896 238.274 219.024 242.605 219.952 246.924 220.054 248.282 220.829 251.296 221.602 252.897 221.291 257.669 221.26 259.466 221.367 260.847 222.002 261.915 222.191 265.115 221.999 267.604 222.551 270.223 222.155 274.6 220.301 275.686 220.028 277.026 220.055 278.542 220.711 279.104 221.779 279.156 223.302 277.549 224.894 277.419 225.405 277.391 226.615 278.121 227.638 279.304 228.529 281.577 229.365 282.412 229.936 283.437 230.709 284.311 231.938 286.68 233.123 288.358 233.654 292.695 235.956 294.017 236.031 295.698 236.554 298.55 236.113 303.59 234.218 306.754 232.141 307.857 231.858 309.244 232.028 311.762 232.848 313.431 234.121 315.178 236.29 316.474 236.252 318.936 234.419 321.304 234.391 324.017 234.952 325.275 233.815 326.541 233.377 328.16 233.632 328.696 233.973 330.121 235.446 330.532 236.215 332.074 236.807 332.212 237.052 z "
     gocart:regionname="Cuyuni-Mazaruni" />
  <path
     style="fill:#e6ab02"
     stroke-width="1"
     stroke="#000000"
     class="region-3"
     id="polygon-3"
     d="M 491.65 263.446 492.207 263.447 492.38 261.965 492.763 261.161 493.017 261.501 494.117 261.757 499.367 261.388 502.414 262.031 504.023 261.908 509.185 263.317 509.904 263.657 510.834 264.591 510.748 264.761 512.526 265.188 513.542 265.147 515.91 266.593 517.854 268.545 520.77 270.669 521.699 272.111 523.01 272.622 525.252 274.193 529.139 278.267 529.772 279.751 530.311 279.497 530.505 279.898 530.437 280.842 531.204 281.848 530.556 284.055 529.537 285.235 530.355 287.125 531.829 287.995 532.347 289.748 533.447 291.002 533.745 293.113 534.525 294.544 534.13 297.454 534.723 299.216 535.055 301.83 536.658 304.457 536.243 306.045 535.855 306.447 534.094 306.239 532.709 306.769 531.404 305.562 530.347 305.203 529.951 305.552 529.511 307.17 528.74 307.448 528.23 307.203 527.833 305.402 525.846 305.073 525.291 305.275 524.453 306.517 524.657 306.915 526.231 307.877 526.532 308.521 526.98 310.298 526.928 311.132 525.599 313.034 526.8 314.459 526.054 315.434 524.861 315.177 524.511 317.035 524.727 317.264 525.585 316.761 526.185 316.938 526.871 317.942 526.728 319.007 525.958 319.052 524.898 318.602 524.365 319.054 523.326 319.174 522.634 319.743 521.451 318.834 520.804 319.89 520.39 319.542 519.738 319.738 519.608 319.31 518.247 318.95 517.426 318.368 517.188 319.555 517.565 320.552 517.239 321.06 517.289 321.684 516.824 322.028 516.036 320.791 516.206 320.297 515.815 320.04 514.906 320.125 514.596 320.503 514.282 320.119 514.102 320.503 513.53 320.193 513.064 320.354 513.502 320.806 513.249 321.573 512.751 322.053 512.786 322.437 512.35 322.368 512.266 322.938 512.497 323.408 511.676 323.343 511.415 323.674 511.489 324.365 512.037 324.687 511.853 325.048 512.282 325.328 511.554 325.793 511.705 326.366 511.101 326.374 511.443 327.54 510.868 328.166 510.7 328.037 510.414 328.31 510.447 328.992 509.726 329.218 509.441 328.553 509.723 328.312 509.303 328.262 509.262 327.939 508.605 328.443 508.47 328.162 508.139 328.139 507.657 328.806 508.107 329.084 508.157 329.762 507.685 330.224 507.45 331.524 506.732 331.086 506.357 331.183 506.386 331.377 506.026 331.185 505.939 331.582 505.46 331.757 505.276 332.901 504.792 332.633 504.374 333.377 504.062 333.632 504.037 333.407 503.762 333.552 503.484 335.042 503.713 335.562 503.596 336.378 503.348 336.478 503.528 336.822 503.099 337.523 503.179 337.882 502.56 339.41 502.653 339.744 501.954 340.543 500.911 340.688 499.793 341.476 499.514 346.15 500.408 348.657 500.202 349.594 499.25 350.855 498.873 352.528 498.99 353.189 497.984 354.584 496.798 357.306 496.934 358.64 496.724 360.119 497.225 362.89 496.801 364.032 497.137 366.137 497.058 367.971 497.464 369.887 498.071 371.283 497.333 372.282 496.942 373.382 476.598 373.45 475.754 374.452 475.219 374.261 474.863 373.582 474.153 373.885 473.395 373.844 473.476 373.067 476.941 369.833 478.241 366.759 478.431 365.357 477.276 364.243 475.317 361.571 475.539 359.457 475.085 356.636 474.409 356.11 472.707 355.744 472.047 354.919 474.012 349.989 476.321 347.449 476.527 346.746 476.218 345.264 476.901 344.265 477.159 343.053 477.108 342.273 476.353 341.306 471.88 337.999 470.339 336.343 470.204 335.543 470.539 332.952 469.946 330.316 471.332 328.04 473.292 325.675 473.485 324.476 473.292 321.059 473.014 320.247 470.571 318.036 470.184 317.437 470.178 314.639 470.907 313.466 473.279 311.932 474.729 310.185 476.991 308.271 482.451 302.192 483.418 299.06 485.094 294.914 485.796 291.176 487.434 288.398 489.316 282.848 488.961 280.727 487.556 277.414 487.569 275.809 488.929 270.949 490.27 267.752 491.65 263.446 z "
     gocart:regionname="Demerara-Mahaica" />
  <path
     style="fill:#e6ab02;fill-opacity:1"
     stroke-width="1"
     stroke="#000000"
     class="region-4"
     id="polygon-4"
     d="M 590.976 343.917 591.36 341.716 591.236 337.946 591.915 337.269 592.169 336.634 593.102 336.297 593.568 335.831 595.645 335.283 595.73 335.494 597.043 335.368 600.39 336.685 601.364 336.855 601.872 337.279 602.847 337.407 603.016 337.618 603.567 337.492 605.007 338.128 605.261 338.806 605.473 338.722 606.786 339.527 607.548 339.697 608.48 340.503 609.327 340.673 610.047 341.435 610.343 341.393 611.529 342.114 612.122 342.792 613.054 343.344 613.054 343.598 614.24 344.022 617.163 346.268 618.137 346.607 621.78 349.321 622.5 349.575 626.99 353.22 627.075 353.516 627.371 353.432 628.049 353.813 630.76 356.821 631.353 357.118 634.488 360.168 635.293 360.55 635.547 361.185 636.014 361.44 639.022 364.787 639.699 366.269 640.546 366.905 642.114 369.573 643.004 370.42 644.529 373.766 645.164 376.011 645.037 376.985 645.376 377.705 645.29 379.103 645.799 380.246 646.221 384.015 647.916 388.42 646.103 394.589 645.724 397.499 646.367 403.178 645.71 407.421 645.299 408.465 648.02 409.59 647.309 411.517 644.954 415.982 644.457 419.014 643.077 417.493 642.237 422.397 641.436 424.748 641.199 428.57 641.518 430.568 642.541 433.09 643.56 434.632 644.021 437.155 643.16 441.469 643.228 443.117 642.674 446.554 640.372 451.678 638.277 455.538 635.901 459.154 633.102 461.789 630.06 465.126 628.452 467.513 627.617 470.39 627.877 477.262 627.391 479.648 625.538 482.141 622.479 484.221 622.428 484.517 621.059 485.48 619.729 486.92 617.738 490.22 617.006 492.36 617.185 493.833 617.642 494.709 619.152 495.583 620.73 495.791 623.636 494.523 624.653 494.346 624.795 495.538 623.753 499.888 623.76 503.15 624.184 504.867 625.169 506.409 626.819 507.599 628.679 508.191 631.974 508.151 632.814 507.693 633.444 506.851 633.756 505.447 633.402 503.939 632.453 502.363 632.45 501.592 632.659 500.855 633.536 501.064 634.906 502.149 635.963 504.707 638.005 508.526 639.551 510.382 641.03 513.255 640.962 514.202 640.262 515.045 637.706 516.417 636.935 516.348 636.127 515.753 635.176 513.791 633.805 511.97 632.12 510.816 629.945 510.293 628.018 510.753 625.811 511.774 624.237 513.074 623.433 514.303 623.049 515.391 622.846 518.688 622.499 520.337 619.286 526.409 618.311 529.252 618.349 530.69 618.983 531.986 619.931 532.511 623.614 533.592 624.07 533.977 623.792 534.784 622.411 534.167 619.863 533.739 618.181 534.127 615.976 535.955 612.4 536.171 610.579 536.736 606.727 539.233 603.257 539.694 599.132 538.898 596.558 538.829 587.822 535.792 586.104 535.866 581.621 538.258 578.537 538.929 576.433 539.003 571.836 536.977 570.293 536.663 566.191 536.845 564.719 537.304 563.038 538.288 559.397 540.679 555.405 543.807 554.462 545.352 553.77 549.633 553.105 550.195 551.667 550.583 550.16 550.446 545.176 548.384 543.914 548.561 541.953 549.617 536.703 554.536 534.115 557.802 531.598 561.98 529.007 563.984 528.274 565.459 527.858 567.95 527.792 570.02 528.29 573.386 529.696 575.173 533.835 575.903 535.204 576.497 536.085 578.6 536.586 583.651 539.824 589.363 539.48 592.38 539.763 593.959 540.572 595.115 540.89 596.272 540.227 597.747 535.124 605.858 533.696 610.316 533.489 612.316 531.187 618.073 528.81 622.111 524.752 626.643 522.168 631.84 521.439 635.244 522.537 640.434 522.223 641.487 517.242 642.686 517.233 649.618 516.949 651.499 515.539 652.259 511.638 657.529 505.416 667.836 503.954 670.879 503.977 672.424 504.839 674.361 506.229 676.198 508.437 681.025 509.124 687.595 508.888 690.788 509.018 692.228 508.693 693.314 509.416 695.18 512.61 699.593 515.151 702.386 517.166 703.327 517.16 708.662 524.792 709.332 526.019 709.083 528.089 709.29 529.459 710.656 533.966 718.47 538.999 726.389 539.956 730.808 540.536 738.945 541.174 741.785 541.879 743.503 543.427 745.535 545.113 746.83 546.306 747.318 551.118 750.396 551.468 750.29 552.206 750.71 554.837 751.442 556.804 752.841 557.544 753.962 559.06 757.677 561.029 759.918 562.61 761.178 565.458 764.575 567.008 767.729 566.872 769.168 566.209 771.064 564.462 773.557 563.52 775.629 562.969 779.98 563.149 781.768 564.205 783.625 568.599 788.002 569.828 788.876 570.6 788.944 573.052 787.993 575.013 786.691 576.73 786.197 579.781 786.155 581.992 787.204 584.417 789.619 585.402 790.985 586.314 791.194 589.784 790.38 592.449 790.691 593.573 791.425 594.735 793.457 595.683 794.087 597.051 794.119 599.678 793.237 601.817 792.988 605.144 791.157 607.071 790.557 609.666 790.622 618.29 790.15 620.498 789.479 621.932 787.863 623.053 787.51 623.545 788.035 624.251 790.279 625.167 791.82 625.84 794.73 625.74 797.116 625.322 798.554 624.065 800.451 623.998 801.959 624.846 804.869 625.759 805.604 625.971 806.094 625.308 807.534 625.627 809.182 625.421 810.866 623.753 817.603 623.863 819.462 625.057 820.196 626.144 820.369 626.671 820.894 624.957 822.792 624.714 823.564 625.138 825.282 626.755 826.787 628.228 827.17 629.349 826.712 630.853 825.411 631.695 825.374 631.697 826.181 630.123 827.762 629.53 828.921 629.638 830.148 630.166 831.164 633.284 832.922 634.728 833.015 636.939 833.887 637.536 834.552 637.859 837.603 638.845 839.53 638.356 840.373 635.621 840.168 634.36 840.801 633.976 841.504 634.856 843.01 637.159 844.675 635.916 846.235 635.358 847.744 635.854 850.268 635.649 852.513 635.862 853.424 636.741 854.44 637.933 854.718 638.809 854.366 641.084 852.573 641.995 852.641 642.488 853.307 641.86 854.886 641.161 855.694 639.061 856.996 636.852 857.386 635.837 857.949 635.698 858.405 635.666 859.913 636.371 861.7 638.448 865.028 638.978 866.78 638.457 869.096 638.951 870.288 639.969 870.987 642.564 871.157 642.95 871.753 642.147 872.807 642.36 874.034 643.938 874.346 644.78 874.345 647.162 873.674 650.209 872.195 651.296 872.333 649.443 874.581 648.326 877.003 648.471 878.827 649.174 879.982 650.122 880.507 651.63 880.504 653.452 879.975 654.399 880.359 654.261 881.306 653.668 882.674 653.741 883.867 654.375 885.268 657.714 889.084 659.931 892.762 660.466 896.794 661.102 899.213 661.876 900.193 663.384 900.471 664.223 899.628 665.239 899.24 665.695 899.274 666.222 899.834 665.109 903.624 665.251 904.5 665.815 905.621 665.96 908.111 666.523 909.091 668.21 910.842 669.55 911.444 670.89 912.986 671.077 914.331 670.877 916.828 671.076 920.664 672.51 921.284 674.241 921.554 674.946 921.161 677.496 921.961 677.98 921.918 678.644 920.732 679.128 920.998 678.718 923.201 676.688 924.186 676.795 925.553 678.695 928.39 679.085 930.634 679.753 931.439 680.876 932.138 680.948 932.77 679.968 933.648 679.655 934.63 679.587 935.507 680.328 938.03 681.593 939.22 685.978 940.965 687.733 942.33 688.507 943.275 688.719 944.326 688.06 947.588 687.96 949.727 688.104 951.55 688.456 952.321 689.686 953.581 690.774 954.281 692.703 955.118 697.017 956.163 697.859 956.898 698.356 959.491 697.734 963.699 697.949 966.224 698.935 968.326 700.551 970.04 703.017 975.786 704.212 977.327 708.567 981.842 715.212 992.243 717.95 994.622 723.208 995.175 733.615 994.281 738.454 995.921 739.078 996.379 740.316 998.057 742.703 1000.227 743.896 1000.926 746.419 1001.027 748.209 1001.901 749.474 1004.213 750.0 1006.333 745.103 1009.057 743.738 1009.585 737.432 1010.892 735.085 1011.036 732.91 1010.373 730.91 1008.799 727.191 1006.596 725.685 1006.809 723.586 1008.776 719.98 1010.639 718.018 1010.713 715.809 1010.331 714.617 1009.842 712.69 1009.67 711.499 1010.233 709.541 1012.199 707.723 1014.551 706.324 1015.92 704.121 1017.536 702.405 1018.205 700.933 1018.173 698.794 1017.405 694.935 1015.239 689.5 1013.986 685.289 1010.804 683.395 1009.931 681.571 1009.654 679.855 1009.727 674.741 1010.858 672.394 1011.038 668.502 1009.923 667.133 1009.084 664.076 1005.55 661.059 1003.837 660.073 1001.876 659.573 997.916 659.181 996.865 657.813 994.484 657.217 994.204 655.815 994.172 651.507 995.267 645.032 999.101 643.424 1000.541 639.22 1001.18 638.065 1001.813 634.01 1005.748 632.328 1005.996 631.346 1005.788 630.327 1004.633 628.601 1000.991 627.162 999.872 625.513 999.174 623.901 998.932 621.239 999.604 619.523 1000.343 615.64 1002.945 614.561 1004.415 613.535 1007.221 612.593 1008.451 611.088 1009.19 608.672 1009.931 605.382 1011.726 603.844 1013.201 602.692 1014.922 601.791 1019.2 600.794 1021.907 599.118 1024.469 596.254 1027.84 594.997 1029.841 589.93 1039.765 588.463 1041.486 586.819 1042.786 585.14 1043.596 583.703 1043.845 580.618 1043.256 578.482 1043.436 576.031 1044.247 574.35 1044.532 572.247 1044.467 569.407 1043.632 564.916 1041.784 561.444 1040.811 552.192 1040.097 550.162 1040.698 549.217 1041.366 544.991 1046.143 543.029 1046.568 537.81 1047.037 534.938 1047.815 533.118 1048.556 530.846 1050.664 529.341 1051.194 527.239 1051.269 525.696 1050.782 521.73 1048.654 516.963 1048.153 516.771 1068.105 516.953 1069.367 516.665 1072.837 515.645 1073.251 511.931 1072.944 510.321 1072.582 504.992 1072.509 501.941 1072.488 497.028 1073.12 495.804 1072.655 495.142 1072.124 494.414 1070.857 494.007 1068.785 493.077 1066.429 492.174 1065.159 491.372 1064.522 489.832 1064.021 487.132 1064.072 480.846 1065.466 479.41 1065.246 475.001 1063.883 471.644 1062.491 468.996 1059.948 467.983 1059.309 466.928 1059.758 463.809 1064.682 461.243 1065.542 459.203 1066.545 458.493 1067.768 458.276 1068.854 459.195 1072.893 459.25 1075.174 458.923 1076.82 458.231 1078.052 456.998 1078.78 452.858 1079.279 450.653 1079.215 452.748 1078.168 454.228 1077.764 455.473 1076.886 456.517 1076.149 457.189 1074.265 456.516 1072.111 456.651 1069.823 462.842 1060.805 464.727 1059.594 465.803 1051.384 465.669 1045.865 465.436 1044.547 465.265 1043.577 464.457 1042.231 462.708 1041.827 458.132 1044.923 456.382 1044.788 455.036 1043.577 453.959 1042.097 452.613 1039.539 452.479 1036.578 453.69 1033.886 457.055 1030.387 459.073 1028.772 462.707 1026.618 464.323 1025.003 464.727 1023.523 464.592 1021.907 463.784 1018.812 466.207 1015.043 469.438 1012.62 473.072 1010.198 477.109 1008.448 481.012 1008.044 485.454 1008.717 487.742 1009.929 490.03 1010.332 492.184 1007.775 493.529 1004.276 491.78 1001.987 487.338 998.623 484.377 997.681 483.301 996.2 483.839 992.028 483.435 989.201 483.973 982.741 484.916 980.991 486.396 973.05 488.954 966.186 492.184 963.359 494.472 962.148 498.779 949.496 499.99 945.054 500.933 934.691 502.682 929.038 505.509 924.192 508.605 919.751 511.027 915.309 512.238 910.868 510.219 900.639 508.335 898.351 508.739 892.563 510.624 889.063 512.777 881.93 514.392 879.911 522.468 875.2 525.698 873.585 527.851 872.105 530.005 869.144 529.735 866.048 527.851 861.203 525.563 858.107 522.871 850.3 522.602 847.07 523.462 844.631 524.451 844.239 524.683 843.336 518.161 840.61 514.796 837.918 511.7 834.822 509.816 830.919 508.335 827.151 507.662 822.574 508.47 818.805 511.969 813.153 513.181 809.922 513.18 803.462 514.123 800.636 515.603 799.693 519.103 800.097 521.257 798.347 521.66 795.521 521.256 791.887 521.929 787.445 525.025 784.081 529.062 781.658 530.678 778.562 531.889 774.255 529.87 771.16 525.832 769.14 522.468 767.929 518.968 767.256 508.873 760.661 507.528 759.45 502.279 758.911 499.183 758.104 491.646 751.509 488.685 749.49 486.8 748.682 484.916 745.317 480.878 740.203 478.481 738.115 476.302 737.147 475.225 735.936 471.861 730.417 470.38 726.245 467.554 716.285 465.804 711.843 465.265 709.286 465.804 708.479 465.534 706.19 464.593 702.152 464.458 699.999 464.458 697.173 465.131 694.884 465.266 692.865 464.862 690.174 463.381 688.155 460.824 685.732 458.67 683.175 456.382 681.156 453.287 677.668 451.616 674.326 450.057 671.875 449.611 668.533 450.391 665.08 451.616 661.626 452.062 655.388 450.092 651.338 450.048 650.702 450.567 650.176 450.005 649.739 449.63 648.052 451.442 646.49 452.816 645.866 454.816 643.554 457.627 641.555 460.688 637.994 461.812 634.683 462.749 630.81 462.312 625.313 461.687 622.252 460.875 620.815 459.626 619.128 454.316 613.443 451.005 611.944 449.068 610.445 448.505 609.619 450.963 609.298 454.936 608.357 458.699 606.371 461.103 603.861 462.358 600.098 467.795 596.962 471.349 594.034 476.665 591.501 477.906 591.944 481.718 594.87 483.846 595.934 486.062 596.377 488.013 596.377 491.027 597.264 493.421 598.948 495.548 599.125 499.272 598.771 502.128 599.139 501.623 598.022 501.769 597.831 503.631 597.269 504.642 596.694 507.138 593.93 507.615 592.197 507.561 591.263 505.616 584.841 505.501 582.611 506.225 581.265 509.041 578.181 511.738 574.139 512.31 572.714 512.857 569.603 513.682 567.785 515.15 566.262 517.344 564.668 519.174 564.403 519.723 563.961 519.657 557.95 521.373 554.155 521.305 552.454 522.878 545.934 523.375 545.322 524.873 544.549 526.526 544.521 528.069 545.3 529.822 546.927 530.858 547.146 531.263 546.861 531.694 544.183 532.144 543.158 534.805 540.633 535.611 539.245 536.801 538.109 536.812 535.358 537.418 533.982 539.868 532.882 544.516 530.153 548.45 529.071 548.755 528.469 548.903 526.238 547.76 523.227 547.726 521.989 549.373 518.839 550.404 517.644 550.972 516.423 551.108 515.461 550.331 512.279 550.287 510.788 550.463 510.095 552.298 507.199 553.118 505.062 553.572 502.637 554.584 500.472 554.52 499.387 553.679 496.37 553.499 494.799 553.647 493.165 555.101 490.164 558.46 487.12 560.557 483.647 562.112 481.921 562.581 480.938 562.28 479.077 560.653 477.631 559.875 476.569 559.445 473.953 559.467 473.389 559.963 472.692 561.508 468.419 560.66 465.672 560.464 463.808 561.153 460.174 562.909 458.319 564.66 455.465 566.351 454.281 567.195 452.635 569.109 451.479 570.872 451.317 571.34 451.019 571.495 450.173 571.108 447.156 571.464 444.475 572.994 440.937 574.381 438.558 574.316 438.158 573.341 437.313 573.769 435.682 573.816 433.418 574.299 432.938 575.638 432.663 577.013 431.009 577.17 430.473 576.682 428.467 577.26 427.339 582.805 423.019 587.089 418.44 582.883 419.505 574.366 420.221 573.984 420.043 573.713 418.498 572.451 417.931 571.667 417.273 570.315 414.338 568.843 412.705 566.898 411.332 566.509 410.786 566.625 409.511 567.338 408.236 568.218 407.723 569.941 407.699 570.317 407.414 570.355 404.722 569.988 403.921 568.602 402.471 566.545 399.474 566.27 397.247 566.706 395.297 566.214 392.453 563.896 389.964 562.154 389.569 561.682 388.823 561.659 388.024 562.126 387.039 563.217 385.752 563.847 384.23 565.116 383.648 565.922 383.764 569.633 385.435 570.06 385.814 570.868 387.859 571.461 388.531 572.662 388.675 573.268 388.181 574.608 384.926 576.301 382.407 577.088 380.0 580.295 376.157 580.488 375.639 580.21 374.92 579.021 374.108 578.105 373.774 575.996 373.582 575.242 373.191 574.432 372.336 574.072 369.951 574.789 367.866 573.347 365.833 572.947 364.887 572.806 363.178 572.995 362.495 574.701 359.897 576.225 359.034 580.603 358.276 589.011 358.085 589.204 356.566 588.49 353.217 590.143 353.647 590.204 351.899 590.865 347.825 590.976 343.917 z "
     gocart:regionname="East Berbice-Corentyne" />
  <path
     style="fill:#e7298a"
     stroke-width="1"
     stroke="#000000"
     class="region-5"
     id="polygon-5"
     d="M 427.329 266.397 427.749 267.203 428.123 269.534 427.989 271.483 427.732 272.456 427.435 272.709 426.392 267.749 426.735 266.776 427.329 266.397 z "
     gocart:regionname="Essequibo Islands-West Demerara" />
  <path
     style="fill:#e7298a"
     stroke-width="1"
     stroke="#000000"
     class="region-5"
     id="polygon-6"
     d="M 429.215 285.51 429.675 287.502 429.33 289.281 429.073 289.915 428.692 290.126 428.147 288.345 428.701 287.287 428.875 285.72 429.215 285.51 z "
     gocart:regionname="Essequibo Islands-West Demerara" />
  <path
     style="fill:#e7298a"
     stroke-width="1"
     stroke="#000000"
     class="region-5"
     id="polygon-7"
     d="M 428.696 315.75 428.364 313.341 429.258 312.073 429.091 311.352 429.643 310.888 430.029 309.237 429.656 306.779 428.773 304.615 428.734 303.556 429.544 301.991 429.294 300.507 429.719 299.958 430.361 298.138 430.381 291.911 430.812 289.328 432.61 283.275 434.61 280.485 436.096 279.219 438.525 274.524 439.291 273.595 440.309 272.962 441.338 268.856 443.126 265.769 444.359 264.248 445.42 263.361 446.909 261.205 448.352 259.897 449.922 259.054 452.258 256.477 452.554 256.478 453.743 255.38 455.522 255.3 459.547 254.126 461.791 254.09 461.961 253.709 463.275 253.543 463.572 253.12 464.377 252.784 465.012 252.913 465.351 252.702 467.172 252.58 468.272 252.88 470.643 252.844 471.869 253.356 471.995 253.61 472.419 253.526 474.195 254.294 474.957 254.042 477.706 255.617 478.34 255.745 480.495 257.233 481.722 257.66 482.44 258.425 483.92 259.064 488.441 262.76 490.259 263.527 491.65 263.446 490.27 267.752 488.929 270.949 487.569 275.809 487.556 277.414 488.961 280.727 489.316 282.848 487.434 288.398 485.796 291.176 485.094 294.914 483.418 299.06 482.451 302.192 476.991 308.271 474.729 310.185 473.279 311.932 470.907 313.466 470.178 314.639 470.184 317.437 470.571 318.036 473.014 320.247 473.292 321.059 473.485 324.476 473.292 325.675 471.332 328.04 469.946 330.316 470.539 332.952 470.204 335.543 470.339 336.343 471.88 337.999 476.353 341.306 477.108 342.273 477.159 343.053 476.901 344.265 476.218 345.264 476.527 346.746 476.321 347.449 474.012 349.989 472.047 354.919 472.707 355.744 474.409 356.11 475.085 356.636 475.539 359.457 475.317 361.571 477.276 364.243 478.431 365.357 478.241 366.759 476.941 369.833 473.476 373.067 473.094 372.823 473.001 372.417 471.681 371.961 471.223 372.107 468.683 370.221 468.43 369.547 467.647 369.052 463.956 368.881 463.249 368.054 462.177 367.828 461.414 367.984 459.576 366.015 459.724 364.863 459.198 363.314 457.699 361.015 456.239 359.671 455.799 358.239 455.866 357.573 456.991 354.801 456.794 354.122 456.038 353.167 455.872 352.255 456.094 351.095 456.932 349.165 454.779 347.635 454.633 347.248 454.823 344.515 454.313 343.175 454.805 340.76 454.288 339.317 454.582 338.435 454.189 336.115 452.692 335.684 451.549 334.404 451.061 334.211 450.52 334.234 448.439 335.295 447.658 335.462 447.054 335.108 444.517 334.612 441.478 332.171 440.945 332.029 440.069 330.995 438.728 330.502 436.06 327.271 436.478 326.197 436.217 324.864 435.858 324.822 435.694 324.203 435.116 324.115 434.929 323.18 434.163 322.955 433.736 321.867 432.599 321.448 431.982 320.918 431.876 320.361 431.21 320.6 430.848 320.097 430.794 319.688 431.033 319.771 431.212 319.446 431.672 319.303 431.545 318.672 431.763 318.047 432.209 318.212 432.678 317.894 432.562 317.204 432.108 316.97 431.649 317.532 431.071 317.083 431.581 315.978 431.313 315.779 430.656 315.718 429.985 316.576 429.125 316.035 428.849 316.1 428.696 315.75 z "
     gocart:regionname="Essequibo Islands-West Demerara" />
  <path
     style="fill:#e7298a"
     stroke-width="1"
     stroke="#000000"
     class="region-5"
     id="polygon-8"
     d="M 433.171 280.311 433.001 280.48 432.662 280.352 433.136 277.896 435.814 274.77 435.344 276.081 434.45 277.392 434.363 278.282 433.171 280.311 z "
     gocart:regionname="Essequibo Islands-West Demerara" />
  <path
     style="fill:#e7298a"
     stroke-width="1"
     stroke="#000000"
     class="region-5"
     id="polygon-9"
     d="M 437.761 275.157 436.098 278.796 434.867 279.808 435.848 277.397 436.997 275.663 437.592 275.03 437.804 274.988 437.761 275.157 z "
     gocart:regionname="Essequibo Islands-West Demerara" />
  <path
     style="fill:#e7298a"
     stroke-width="1"
     stroke="#000000"
     class="region-5"
     id="polygon-10"
     d="M 434.844 273.453 435.27 272.862 435.99 272.695 435.991 272.398 438.756 268.467 439.524 266.563 439.864 266.267 440.753 266.27 440.878 267.118 440.409 268.175 438.709 270.034 437.432 272.233 433.307 277.261 434.844 273.453 z "
     gocart:regionname="Essequibo Islands-West Demerara" />
  <path
     style="fill:#e7298a"
     stroke-width="1"
     stroke="#000000"
     class="region-5"
     id="polygon-11"
     d="M 439.611 239.364 438.211 240.081 436.089 241.768 434.261 244.092 433.239 245.996 431.657 250.65 430.55 252.765 430.076 255.263 429.135 258.099 428.959 259.878 427.978 261.993 427.462 264.575 426.014 267.07 426.799 272.707 426.186 279.145 425.375 280.88 425.456 281.981 424.768 285.156 424.299 286.045 424.467 286.638 424.163 288.756 423.137 291.802 423.259 293.243 423.005 293.285 423.211 294.811 423.633 295.575 424.004 298.669 424.721 299.688 424.254 300.068 424.294 300.831 423.7 301.083 423.359 301.547 423.184 303.199 423.683 306.082 424.477 307.434 424.232 307.719 424.416 308.177 422.987 308.889 423.097 309.394 422.518 310.248 421.649 310.067 420.503 310.505 419.875 310.251 419.039 310.287 418.055 311.112 417.643 311.893 417.162 311.943 416.68 311.573 415.792 311.593 414.762 310.615 414.148 309.105 413.567 308.53 413.354 307.657 412.939 307.314 411.034 307.497 410.171 308.373 407.634 307.918 407.433 307.497 406.955 307.381 405.664 306.312 404.594 306.547 404.154 306.409 402.955 304.8 402.153 304.704 401.55 304.236 400.8 304.474 400.438 304.355 400.281 303.097 399.83 302.377 398.685 301.752 396.929 300.795 396.186 300.821 395.166 301.64 392.533 303.056 391.219 303.139 389.604 302.445 388.584 299.846 389.025 299.595 389.409 299.901 390.277 299.984 390.978 299.474 392.807 297.317 391.199 295.147 391.097 294.305 391.479 292.919 390.914 291.041 391.295 289.004 390.225 287.419 389.798 286.172 389.738 284.793 390.525 281.806 390.182 281.009 389.548 280.678 387.575 281.218 386.688 281.071 386.098 280.112 385.415 277.579 384.723 276.269 384.781 275.664 385.378 276.342 385.955 276.558 387.531 276.807 389.42 276.568 391.007 277.257 391.763 276.599 392.793 275.033 393.651 274.546 394.391 273.625 397.121 274.059 398.273 273.058 399.561 272.555 400.507 272.463 403.522 272.815 404.246 271.749 406.495 269.607 406.76 268.989 406.497 268.123 404.986 266.266 404.873 265.202 407.165 263.668 408.98 261.272 410.468 260.13 411.404 259.738 414.669 260.023 415.927 259.808 417.907 259.879 419.419 259.665 420.448 259.223 421.291 257.939 421.782 255.679 424.132 254.418 425.406 252.419 427.906 250.435 430.019 246.792 432.764 243.563 437.245 239.799 439.344 239.04 439.611 239.364 z "
     gocart:regionname="Essequibo Islands-West Demerara" />
  <path
     style="fill:#e7298a"
     stroke-width="1"
     stroke="#000000"
     class="region-5"
     id="polygon-12"
     d="M 430.129 264.838 430.548 266.111 430.71 268.357 430.446 271.491 430.231 272.38 429.977 272.548 429.221 270.597 429.058 268.69 429.317 266.954 430.129 264.838 z "
     gocart:regionname="Essequibo Islands-West Demerara" />
  <path
     style="fill:#e7298a"
     stroke-width="1"
     stroke="#000000"
     class="region-5"
     id="polygon-13"
     d="M 434.216 258.073 434.381 259.387 433.438 262.816 431.185 265.689 430.891 264.925 431.065 263.528 433.324 258.663 434.216 258.073 z "
     gocart:regionname="Essequibo Islands-West Demerara" />
  <path
     style="fill:#e7298a"
     stroke-width="1"
     stroke="#000000"
     class="region-5"
     id="polygon-14"
     d="M 433.163 256.375 433.246 256.757 432.777 257.899 431.926 259.082 430.391 262.382 429.88 263.016 429.799 262.126 430.483 260.01 432.354 257.728 432.781 256.543 433.163 256.375 z "
     gocart:regionname="Essequibo Islands-West Demerara" />
  <path
     style="fill:#e7298a"
     stroke-width="1"
     stroke="#000000"
     class="region-5"
     id="polygon-15"
     d="M 461.902 245.067 461.561 245.786 460.627 246.673 459.313 247.178 458.509 247.218 457.152 248.019 455.034 248.351 454.228 249.027 451.642 250.036 450.538 251.303 449.477 251.893 449.264 252.316 447.526 252.946 446.295 254.298 445.617 254.593 446.474 250.994 447.628 247.524 449.408 246.767 451.572 245.376 454.288 242.842 455.818 241.11 455.861 240.728 457.386 240.352 458.486 240.397 459.966 241.079 461.235 241.337 461.741 241.805 462.8 241.765 463.18 242.148 465.167 243.043 465.123 243.636 464.657 243.677 463.851 244.226 463.174 244.139 461.902 245.067 z "
     gocart:regionname="Essequibo Islands-West Demerara" />
  <path
     style="fill:#e7298a"
     stroke-width="1"
     stroke="#000000"
     class="region-5"
     id="polygon-16"
     d="M 431.145 277.975 430.762 278.355 431.234 276.45 431.2 273.908 431.803 270.902 431.646 267.004 432.03 266.073 433.988 263.241 434.628 261.633 435.1 259.601 435.024 257.016 435.366 255.789 437.747 252.831 439.188 252.2 441.391 251.995 442.959 251.407 443.975 251.495 444.65 252.302 444.815 253.743 443.541 254.925 442.732 256.405 441.287 257.841 440.943 259.746 440.049 261.269 439.369 261.945 439.411 262.241 438.05 263.931 436.943 266.004 434.522 268.326 433.795 270.23 433.194 272.94 431.145 277.975 z "
     gocart:regionname="Essequibo Islands-West Demerara" />
  <path
     style="fill:#e7298a"
     stroke-width="1"
     stroke="#000000"
     class="region-5"
     id="polygon-17"
     d="M 439.384 243.94 441.206 243.607 440.393 246.019 439.628 247.202 435.72 251.215 435.207 252.526 433.082 255.146 432.1 257.557 431.505 258.276 430.911 258.571 431.127 257.512 432.192 255.27 434.501 248.541 438.069 244.698 439.384 243.94 z "
     gocart:regionname="Essequibo Islands-West Demerara" />
  <path
     style="fill:#e7298a"
     stroke-width="1"
     stroke="#000000"
     class="region-5"
     id="polygon-18"
     d="M 437.655 241.773 437.739 242.197 437.269 243.34 435.613 244.987 433.784 247.607 433.36 247.818 433.532 246.971 435.364 243.461 436.681 241.982 437.655 241.773 z "
     gocart:regionname="Essequibo Islands-West Demerara" />
  <path
     style="fill:#e7298a"
     stroke-width="1"
     stroke="#000000"
     class="region-5"
     id="polygon-19"
     d="M 447.954 237.951 449.019 235.794 449.321 233.803 449.79 232.619 450.853 231.224 451.952 231.651 454.653 234.159 455.161 234.287 455.286 234.711 456.047 235.18 456.975 236.368 456.888 236.792 456.379 237.299 454.472 238.098 453.539 238.773 450.776 242.492 446.83 245.615 442.497 250.346 441.182 251.105 439.995 251.398 438.895 251.352 438.939 250.759 440.936 248.647 443.912 244.589 445.403 241.502 447.954 237.951 z "
     gocart:regionname="Essequibo Islands-West Demerara" />
  <path
     style="fill:#d95f02"
     stroke-width="1"
     stroke="#000000"
     class="region-6"
     id="polygon-20"
     d="M 530.311 279.497 531.803 280.178 533.537 281.494 535.989 283.955 537.765 285.356 538.314 286.161 539.245 286.587 543.304 290.363 545.25 291.637 546.772 293.249 546.898 293.8 547.87 294.987 548.377 296.005 548.291 296.894 548.502 297.233 548.841 296.895 549.815 297.066 550.957 297.915 551.761 298.17 552.142 298.848 554.214 300.842 557.301 304.447 560.221 306.06 560.729 306.654 563.183 308.224 566.271 311.405 566.271 311.659 569.105 314.839 570.248 315.518 571.347 316.706 572.702 317.385 574.649 319.124 575.832 321.37 576.382 322.133 577.398 322.769 577.524 323.489 578.37 324.676 578.963 325.101 579.132 325.736 580.189 326.881 582.642 330.695 583.823 335.779 584.372 337.685 584.922 338.617 586.995 341.542 588.265 342.729 588.646 343.534 590.128 343.959 590.976 343.917 590.865 347.825 590.204 351.899 590.143 353.647 588.49 353.217 589.204 356.566 589.011 358.085 580.603 358.276 576.225 359.034 574.701 359.897 572.995 362.495 572.806 363.178 572.947 364.887 573.347 365.833 574.789 367.866 574.072 369.951 574.432 372.336 575.242 373.191 575.996 373.582 578.105 373.774 579.021 374.108 580.21 374.92 580.488 375.639 580.295 376.157 577.088 380.0 576.301 382.407 574.608 384.926 573.268 388.181 572.662 388.675 571.461 388.531 570.868 387.859 570.06 385.814 569.633 385.435 565.922 383.764 565.116 383.648 563.847 384.23 563.217 385.752 562.126 387.039 561.659 388.024 561.682 388.823 562.154 389.569 563.896 389.964 566.214 392.453 566.706 395.297 566.27 397.247 566.545 399.474 568.602 402.471 569.988 403.921 570.355 404.722 570.317 407.414 569.941 407.699 568.218 407.723 567.338 408.236 566.625 409.511 566.509 410.786 566.898 411.332 568.843 412.705 570.315 414.338 571.667 417.273 572.451 417.931 573.713 418.498 573.984 420.043 572.244 419.35 570.451 419.716 568.467 419.134 566.733 419.471 565.328 418.79 564.281 416.292 561.837 414.232 561.707 413.035 562.844 411.407 563.263 410.074 562.761 408.406 562.027 407.868 561.223 407.839 560.247 408.723 560.096 409.292 560.417 410.995 559.948 411.751 550.298 415.108 547.334 415.262 543.711 413.461 542.471 413.127 540.063 413.134 537.796 412.733 535.076 411.699 533.859 410.968 533.011 409.72 532.053 407.275 531.527 406.74 529.429 405.606 528.38 404.122 527.428 404.321 526.602 404.028 523.914 400.195 523.283 399.818 522.192 400.921 521.878 400.981 521.783 398.567 520.349 398.918 518.143 398.486 517.627 397.977 514.638 399.023 511.636 398.492 509.207 399.192 507.588 398.781 505.735 398.727 504.688 397.863 503.711 397.415 502.597 396.276 501.37 394.388 501.051 392.842 500.626 392.205 496.613 391.129 495.828 390.408 496.05 388.865 494.963 387.673 495.445 386.939 495.671 385.939 495.313 384.179 494.803 383.283 494.907 382.177 495.851 381.035 497.57 380.332 499.825 379.917 500.358 379.388 500.068 378.393 500.386 377.52 500.065 377.083 498.973 377.134 497.899 378.072 497.349 378.009 496.994 377.64 496.526 375.477 496.942 373.382 497.333 372.282 498.071 371.283 497.464 369.887 497.058 367.971 497.137 366.137 496.801 364.032 497.225 362.89 496.724 360.119 496.934 358.64 496.798 357.306 497.984 354.584 498.99 353.189 498.873 352.528 499.25 350.855 500.202 349.594 500.408 348.657 499.514 346.15 499.793 341.476 500.911 340.688 501.954 340.543 502.653 339.744 502.56 339.41 503.179 337.882 503.099 337.523 503.528 336.822 503.348 336.478 503.596 336.378 503.713 335.562 503.484 335.042 503.762 333.552 504.037 333.407 504.062 333.632 504.374 333.377 504.792 332.633 505.276 332.901 505.46 331.757 505.939 331.582 506.026 331.185 506.386 331.377 506.357 331.183 506.732 331.086 507.45 331.524 507.685 330.224 508.157 329.762 508.107 329.084 507.657 328.806 508.139 328.139 508.47 328.162 508.605 328.443 509.262 327.939 509.303 328.262 509.723 328.312 509.441 328.553 509.726 329.218 510.447 328.992 510.414 328.31 510.7 328.037 510.868 328.166 511.443 327.54 511.101 326.374 511.705 326.366 511.554 325.793 512.282 325.328 511.853 325.048 512.037 324.687 511.489 324.365 511.415 323.674 511.676 323.343 512.497 323.408 512.266 322.938 512.35 322.368 512.786 322.437 512.751 322.053 513.249 321.573 513.502 320.806 513.064 320.354 513.53 320.193 514.102 320.503 514.282 320.119 514.596 320.503 514.906 320.125 515.815 320.04 516.206 320.297 516.036 320.791 516.824 322.028 517.289 321.684 517.239 321.06 517.565 320.552 517.188 319.555 517.426 318.368 518.247 318.95 519.608 319.31 519.738 319.738 520.39 319.542 520.804 319.89 521.451 318.834 522.634 319.743 523.326 319.174 524.365 319.054 524.898 318.602 525.958 319.052 526.728 319.007 526.871 317.942 526.185 316.938 525.585 316.761 524.727 317.264 524.511 317.035 524.861 315.177 526.054 315.434 526.8 314.459 525.599 313.034 526.928 311.132 526.98 310.298 526.532 308.521 526.231 307.877 524.657 306.915 524.453 306.517 525.291 305.275 525.846 305.073 527.833 305.402 528.23 307.203 528.74 307.448 529.511 307.17 529.951 305.552 530.347 305.203 531.404 305.562 532.709 306.769 534.094 306.239 535.855 306.447 536.243 306.045 536.658 304.457 535.055 301.83 534.723 299.216 534.13 297.454 534.525 294.544 533.745 293.113 533.447 291.002 532.347 289.748 531.829 287.995 530.355 287.125 529.537 285.235 530.556 284.055 531.204 281.848 530.437 280.842 530.505 279.898 530.311 279.497 z "
     gocart:regionname="Mahaica-Berbice" />
  <path
     style="fill:#1b9e77"
     stroke-width="1"
     stroke="#000000"
     class="region-7"
     id="polygon-21"
     d="M 446.57 220.492 447.66 223.589 447.018 225.747 447.054 227.95 446.24 231.04 445.346 232.562 444.711 232.815 444.585 232.391 445.789 226.294 445.926 223.456 446.57 220.492 z "
     gocart:regionname="Pomeroon-Supenaam" />
  <path
     style="fill:#1b9e77"
     stroke-width="1"
     stroke="#000000"
     class="region-7"
     id="polygon-22"
     d="M 397.101 133.111 398.032 133.454 397.866 133.799 398.58 134.522 398.662 135.582 399.21 135.796 399.125 136.049 399.546 136.433 399.503 136.687 401.438 139.068 403.168 139.71 403.803 139.713 403.928 139.925 404.276 139.885 404.277 139.494 405.072 139.294 406.509 139.596 407.27 139.388 407.825 139.686 407.774 140.152 408.451 140.06 409.926 141.305 410.653 141.047 411.235 141.522 411.747 141.563 411.827 141.736 411.066 141.691 411.53 141.905 412.208 141.568 413.218 142.674 414.695 143.315 413.852 142.719 413.937 142.341 415.119 143.063 416.128 144.633 414.864 143.443 414.989 143.825 416.46 145.277 416.503 145.949 417.212 146.587 417.3 147.435 418.394 148.837 418.817 148.966 418.856 149.729 419.402 150.706 420.371 151.684 421.084 153.127 422.813 154.911 422.894 155.379 424.073 156.57 424.157 157.11 424.665 157.112 425.209 158.057 426.636 159.373 426.429 159.883 426.933 160.605 428.029 161.668 428.578 161.713 428.45 162.221 429.001 162.305 429.04 162.773 429.674 162.776 429.588 163.326 430.178 163.625 430.768 164.347 430.733 164.638 431.778 165.876 433.038 168.084 435.017 170.548 435.324 170.589 435.395 171.397 436.196 172.12 436.7 173.18 437.038 173.393 436.994 173.817 437.414 174.496 439.227 176.239 440.031 176.2 439.987 176.539 440.62 176.837 441.503 178.45 443.441 180.66 444.45 182.612 444.993 184.605 444.948 185.452 445.243 185.665 445.281 187.232 445.533 187.572 445.646 191.809 445.387 193.545 445.512 194.181 445.425 194.647 445.001 195.026 444.867 197.229 444.18 200.404 444.303 201.675 443.962 202.352 444.086 203.158 443.619 203.707 443.572 205.189 444.238 208.496 444.868 209.981 445.374 210.575 445.875 212.822 445.528 215.575 445.563 217.482 445.176 219.598 445.296 221.505 444.208 231.034 442.967 235.478 441.689 237.974 439.611 239.364 439.344 239.04 437.245 239.799 432.764 243.563 430.019 246.792 427.906 250.435 425.406 252.419 424.132 254.418 421.782 255.679 421.291 257.939 420.448 259.223 419.419 259.665 417.907 259.879 415.927 259.808 414.669 260.023 411.404 259.738 410.468 260.13 408.98 261.272 407.165 263.668 404.873 265.202 404.986 266.266 406.497 268.123 406.76 268.989 406.495 269.607 404.246 271.749 403.522 272.815 400.507 272.463 399.561 272.555 398.273 273.058 397.121 274.059 394.391 273.625 393.651 274.546 392.793 275.033 391.763 276.599 391.007 277.257 389.42 276.568 387.531 276.807 385.955 276.558 385.378 276.342 384.781 275.664 383.819 274.218 384.162 273.126 384.274 270.348 383.796 269.541 380.665 270.211 376.897 270.669 376.572 270.396 376.4 269.613 376.728 267.33 376.226 266.685 372.733 266.605 368.913 267.408 366.6 265.177 365.289 263.365 363.459 262.775 363.258 261.819 362.962 261.507 360.971 261.599 360.093 260.856 359.347 260.597 358.329 261.178 357.61 262.298 356.001 262.578 354.232 261.906 351.837 260.192 350.279 260.014 349.751 259.183 347.429 256.967 346.217 257.033 345.382 256.721 343.857 254.695 343.25 254.71 342.595 255.405 342.084 255.503 341.383 255.152 340.879 254.259 340.538 254.124 339.712 254.795 339.261 254.842 338.986 254.487 339.441 253.386 339.649 251.045 339.002 249.467 337.019 248.097 336.252 246.806 334.201 246.41 334.014 245.124 332.696 243.675 332.96 240.733 332.798 239.528 333.072 238.622 332.861 238.086 332.382 237.712 332.212 237.052 332.43 235.137 331.481 234.781 330.327 232.745 329.033 231.115 328.712 227.811 329.235 223.02 329.961 221.236 331.094 219.613 331.549 218.358 332.756 216.402 333.656 212.991 335.583 211.248 336.308 211.68 336.667 211.628 338.901 208.637 338.959 207.453 337.215 205.002 337.028 202.831 337.56 201.907 338.101 201.619 340.085 201.474 340.918 201.152 341.68 200.076 342.663 197.327 342.717 196.85 342.209 196.111 342.112 195.477 342.606 193.374 341.897 191.511 342.283 188.746 342.114 187.65 343.085 186.945 343.37 186.386 342.849 184.296 342.893 183.261 343.302 182.369 344.068 181.6 345.08 181.25 345.587 181.444 346.113 180.871 346.754 181.468 348.815 182.063 349.152 179.94 350.049 178.647 350.902 178.709 351.568 177.906 352.798 177.629 352.966 177.335 352.71 176.734 351.766 176.524 351.326 176.118 350.98 175.425 350.888 174.319 349.393 173.715 349.21 172.692 348.582 172.319 347.815 171.347 347.602 170.28 346.218 169.442 346.073 168.771 346.414 167.338 346.844 166.968 347.541 166.966 347.85 166.423 348.802 165.81 349.324 164.271 350.175 164.166 350.977 163.698 352.435 161.615 352.662 160.199 352.368 157.896 353.798 156.135 355.75 155.079 357.135 154.991 360.153 155.579 360.479 155.301 361.06 155.17 361.391 155.341 361.657 155.117 362.302 155.25 362.767 155.698 363.811 155.759 364.497 155.308 364.909 155.338 365.117 154.855 365.553 154.82 366.331 155.278 367.023 156.382 368.025 156.328 368.847 156.686 369.351 156.561 370.251 155.67 370.874 155.552 372.435 156.99 374.06 158.005 374.794 157.176 376.19 157.297 376.92 156.081 378.469 155.444 379.094 154.348 379.84 154.237 381.437 154.657 381.858 154.503 382.714 153.061 382.828 152.364 381.978 151.299 382.035 150.992 383.059 150.112 382.991 148.746 383.528 148.432 384.062 148.617 384.755 149.291 385.566 148.875 385.836 147.403 386.844 146.899 387.698 145.701 387.962 144.371 387.866 143.03 389.852 142.518 390.329 140.323 391.12 139.287 391.419 138.136 394.088 136.583 395.499 135.119 396.133 134.778 397.101 133.111 z "
     gocart:regionname="Pomeroon-Supenaam" />
  <path
     style="fill:#66a61e"
     stroke-width="1"
     stroke="#000000"
     class="region-8"
     id="polygon-23"
     d="M 260.609 635.586 261.376 634.405 261.049 633.401 259.709 632.801 255.911 632.837 255.038 632.127 253.986 631.979 253.464 631.377 252.465 628.909 251.593 628.129 246.972 626.088 244.596 624.558 243.898 623.955 243.486 622.862 243.068 622.437 242.262 622.219 240.874 619.889 239.623 622.619 239.021 623.141 238.39 623.101 237.749 622.228 236.737 621.551 235.3 621.011 232.53 620.493 232.215 619.819 232.56 619.352 233.334 619.253 233.777 618.537 233.675 618.115 232.691 618.141 232.342 617.892 231.825 616.763 231.406 616.513 230.878 616.614 230.131 617.661 228.373 617.75 227.675 619.483 226.193 620.172 225.525 620.201 225.18 619.565 225.468 618.689 225.262 618.196 224.141 617.729 223.251 615.155 222.662 614.236 222.243 613.986 221.714 614.192 221.286 614.891 220.02 614.95 219.32 614.697 219.147 614.38 217.568 614.225 216.827 614.464 216.237 615.108 216.475 616.236 216.206 617.129 215.781 617.441 214.518 617.324 208.845 615.128 207.227 615.184 206.202 615.912 205.115 615.657 201.454 616.361 200.543 616.071 200.549 615.333 201.462 613.251 201.616 611.706 201.34 611.141 199.687 611.302 199.163 610.981 198.748 610.204 197.132 610.119 196.461 610.429 196.349 611.201 196.688 612.61 196.402 613.099 195.096 613.79 194.11 613.992 193.408 613.95 192.043 613.235 190.045 612.619 186.653 612.268 186.164 611.807 186.706 610.09 186.843 604.448 187.302 604.206 189.092 604.397 190.149 604.124 190.821 603.568 191.193 601.04 192.288 600.381 193.659 600.323 197.099 600.773 197.735 600.287 198.766 598.89 199.395 596.875 199.516 594.908 199.185 592.551 199.925 590.464 202.635 588.752 204.647 585.921 205.814 585.088 206.682 584.027 206.864 583.326 205.677 581.307 206.387 580.068 207.504 574.898 207.134 573.138 206.506 572.675 206.169 571.02 206.54 568.372 207.422 566.9 209.525 559.962 209.778 555.431 211.887 549.359 212.815 544.167 212.618 542.725 213.061 540.34 212.826 539.178 215.021 533.753 215.537 530.7 216.073 529.245 216.151 527.908 215.284 526.67 209.008 525.309 206.493 523.668 205.839 522.291 204.901 521.158 203.817 520.62 203.26 520.053 202.882 519.171 199.297 517.06 199.234 516.307 199.677 514.66 201.894 512.633 205.678 510.229 207.259 508.484 209.603 505.05 211.597 501.322 211.674 499.544 208.126 494.497 207.067 492.321 206.537 487.908 206.791 486.675 208.437 484.018 210.495 481.511 213.113 479.192 215.998 478.435 217.752 477.306 220.749 475.949 224.155 476.144 225.521 476.666 227.81 478.22 229.696 480.346 232.119 481.1 233.037 482.04 233.678 482.353 233.982 483.043 236.057 483.205 236.659 484.157 238.203 484.426 239.643 485.181 243.281 485.843 244.714 486.668 245.7 486.118 248.16 486.863 250.399 486.748 250.825 485.328 255.083 484.885 256.877 483.354 257.311 481.794 259.052 481.343 262.129 481.35 267.889 483.269 270.188 483.721 271.191 483.522 272.411 482.504 273.296 479.262 275.695 475.014 275.722 470.818 275.948 470.122 276.519 469.737 276.787 469.109 276.42 467.975 275.282 466.239 275.075 464.811 275.883 463.63 277.071 463.106 277.915 462.098 279.071 459.869 279.412 458.058 278.156 453.588 277.628 452.726 276.204 451.588 275.123 450.116 277.762 447.379 279.608 443.004 280.155 442.32 281.864 441.705 283.094 441.842 283.915 442.594 285.214 442.867 285.966 442.662 287.128 441.568 290.683 441.5 292.119 441.705 294.238 442.799 296.494 442.936 297.725 443.551 299.913 445.465 301.28 445.876 304.699 444.713 307.365 445.26 308.322 445.807 312.424 446.764 314.612 446.969 315.706 446.628 317.757 445.67 317.825 444.303 317.484 443.141 316.458 441.978 315.227 441.295 312.903 439.38 312.288 438.218 311.878 436.372 311.946 435.347 312.424 434.595 313.587 433.774 315.774 432.749 318.646 431.997 320.714 431.162 321.053 431.659 321.998 431.519 324.984 429.861 326.829 427.82 329.264 426.78 335.739 426.268 336.764 426.972 337.539 428.383 337.685 430.204 337.431 431.822 333.441 437.002 332.224 440.217 332.457 441.082 333.557 441.534 338.068 442.133 341.198 443.502 342.586 444.352 344.485 446.66 347.154 447.924 349.086 448.481 352.419 448.358 354.685 449.416 357.15 449.983 359.033 451.581 359.632 452.442 360.035 455.838 361.577 460.578 362.401 462.076 364.425 463.164 366.355 465.041 368.132 465.475 369.725 466.214 373.162 471.781 373.531 471.954 375.727 470.857 376.865 470.606 378.154 471.171 379.961 473.554 380.075 475.241 379.858 477.146 380.315 478.919 380.892 479.661 380.083 480.605 379.455 482.173 378.41 486.25 378.448 486.963 379.129 487.07 379.124 490.077 379.557 491.809 379.931 492.349 379.014 493.082 383.324 495.345 384.16 496.914 388.028 499.945 390.014 502.768 389.282 503.918 388.655 506.009 388.237 507.786 388.237 509.563 388.76 513.327 389.805 515.418 390.746 519.39 390.328 522.631 388.864 525.663 388.341 530.89 386.773 532.144 385.205 536.745 385.414 538.94 384.055 544.376 384.473 546.467 386.564 550.544 387.191 553.262 390.014 559.326 390.119 562.253 391.478 564.344 392.001 565.599 391.582 567.585 392.209 569.676 394.718 571.767 394.927 573.44 395.659 575.112 397.437 575.739 404.65 575.739 406.846 576.471 407.891 577.517 408.623 579.084 408.936 584.103 409.459 585.776 410.818 586.926 412.073 587.553 412.805 588.912 413.327 590.898 414.582 592.989 418.868 596.857 420.018 598.739 421.064 601.98 422.004 603.444 426.186 606.58 430.472 608.671 432.459 609.193 434.654 607.416 435.386 605.639 436.327 604.489 437.268 603.861 438.104 603.861 440.613 605.221 442.286 607.521 444.899 609.193 446.572 609.716 448.505 609.619 449.068 610.445 451.005 611.944 454.316 613.443 459.626 619.128 460.875 620.815 461.687 622.252 462.312 625.313 462.749 630.81 461.812 634.683 460.688 637.994 457.627 641.555 454.816 643.554 452.816 645.866 451.442 646.49 449.63 648.052 450.005 649.739 450.567 650.176 450.048 650.702 448.72 649.707 447.16 649.15 445.713 649.484 442.491 651.866 441.256 650.403 437.647 648.94 436.802 649.07 430.495 652.776 428.739 652.906 427.504 653.622 424.025 653.264 422.27 653.329 420.872 653.947 417.621 656.06 413.168 657.685 409.201 660.416 406.438 661.717 405.43 662.529 402.016 667.015 401.301 669.811 400.13 672.152 399.69 675.134 399.185 676.272 398.3 677.409 397.289 680.949 396.53 682.34 395.393 682.845 392.738 682.592 390.336 681.96 387.808 680.949 385.027 680.317 382.752 679.305 380.097 678.8 377.189 677.915 375.167 678.421 372.133 680.443 371.047 681.472 366.105 679.571 365.311 675.039 362.706 668.694 362.026 666.201 360.666 664.275 357.543 661.26 358.396 659.816 360.111 657.77 360.498 656.166 361.604 654.23 361.66 653.235 362.434 650.58 364.038 648.755 364.591 647.151 363.208 645.879 361.549 645.824 358.175 646.211 356.35 646.875 354.139 648.478 353.032 650.193 352.092 653.898 351.651 654.507 351.154 654.748 350.708 651.663 349.978 650.112 348.732 648.526 346.506 646.603 343.86 646.146 336.196 646.481 332.529 647.166 329.066 647.156 326.038 647.846 324.335 648.766 323.869 649.35 321.407 650.05 318.409 650.05 316.409 651.45 314.81 651.749 309.812 650.75 307.224 648.816 304.807 648.412 303.787 649.318 301.861 652.605 301.067 654.757 300.614 657.703 299.368 659.742 298.235 660.649 295.516 661.215 292.456 660.309 291.323 659.289 290.303 656.683 291.323 653.284 292.909 651.131 293.476 649.885 293.476 648.639 291.89 645.466 291.89 644.22 294.227 640.655 293.703 639.348 291.99 637.088 292.111 635.577 292.594 634.851 295.134 632.917 296.464 631.043 296.403 628.02 295.738 625.541 295.968 624.051 295.315 622.7 294.166 621.733 291.325 620.463 290.841 619.919 290.842 617.683 292.534 613.813 292.655 612.604 293.985 610.67 293.985 609.219 293.018 608.312 289.753 607.707 287.698 607.849 284.615 607.466 279.839 607.889 279.114 609.944 275.8 613.854 275.244 615.929 273.612 619.859 267.99 625.723 267.809 626.871 267.99 628.201 268.836 630.196 268.594 631.889 267.748 633.098 265.995 634.247 262.82 635.69 261.047 635.817 260.609 635.586 z "
     gocart:regionname="Potaro-Siparuni" />
  <path
     style="fill:#1b9e77"
     stroke-width="1"
     stroke="#000000"
     class="region-9"
     id="polygon-24"
     d="M 448.505 609.619 446.572 609.716 444.899 609.193 442.286 607.521 440.613 605.221 438.104 603.861 437.268 603.861 436.327 604.489 435.386 605.639 434.654 607.416 432.459 609.193 430.472 608.671 426.186 606.58 422.004 603.444 421.064 601.98 420.018 598.739 418.868 596.857 414.582 592.989 413.327 590.898 412.805 588.912 412.073 587.553 410.818 586.926 409.459 585.776 408.936 584.103 408.623 579.084 407.891 577.517 406.846 576.471 404.65 575.739 397.437 575.739 395.659 575.112 394.927 573.44 394.718 571.767 392.209 569.676 391.582 567.585 392.001 565.599 391.478 564.344 390.119 562.253 390.014 559.326 387.191 553.262 386.564 550.544 384.473 546.467 384.055 544.376 385.414 538.94 385.205 536.745 386.773 532.144 388.341 530.89 388.864 525.663 390.328 522.631 390.746 519.39 389.805 515.418 388.76 513.327 388.237 509.563 388.237 507.786 388.655 506.009 389.282 503.918 390.014 502.768 388.028 499.945 384.16 496.914 383.324 495.345 379.014 493.082 379.931 492.349 379.557 491.809 379.124 490.077 379.129 487.07 378.448 486.963 378.41 486.25 379.455 482.173 380.083 480.605 380.892 479.661 381.371 479.814 381.848 479.155 383.348 478.983 384.891 477.468 386.143 476.902 387.902 477.504 389.565 477.13 390.911 477.444 391.525 476.925 393.413 476.369 394.721 476.92 396.032 476.944 398.63 476.329 401.456 474.829 402.506 474.826 405.271 473.667 406.466 473.685 408.217 474.467 411.701 473.303 414.043 471.766 414.561 471.186 417.68 465.679 419.582 464.117 421.574 458.636 421.107 455.165 421.735 452.98 422.383 452.248 423.414 448.565 424.571 446.861 425.001 445.252 424.707 444.134 424.923 442.218 425.592 440.264 425.183 439.172 423.714 438.187 423.386 437.021 423.62 433.985 423.905 433.416 424.417 433.072 424.829 431.408 423.918 427.886 424.025 426.823 424.714 425.93 424.815 425.408 424.715 424.074 423.639 419.647 424.29 418.476 423.811 416.763 423.941 414.368 424.172 412.833 425.079 410.044 425.107 408.329 425.519 406.063 427.29 403.114 429.491 401.31 429.193 400.195 429.354 399.127 427.866 396.082 427.716 394.896 428.185 392.74 428.369 390.208 428.151 388.455 429.048 386.682 429.053 384.137 428.009 383.236 427.567 383.223 426.794 382.721 426.668 381.663 427.218 380.996 425.432 378.818 425.697 378.397 425.516 378.064 425.945 377.945 426.394 376.583 426.662 376.31 427.931 376.247 427.918 375.376 427.045 372.848 427.15 372.495 427.983 372.43 428.259 372.102 427.563 370.745 427.163 370.586 427.389 369.78 427.205 369.413 427.511 368.782 428.243 368.386 428.457 367.415 429.3 366.261 429.359 365.002 429.996 363.891 430.423 363.73 429.233 361.452 429.091 359.598 429.78 357.352 428.868 355.303 428.381 353.042 428.593 351.486 429.125 350.778 429.435 349.52 429.766 348.944 430.128 348.829 430.315 348.263 429.093 345.369 429.092 344.113 428.551 343.2 427.436 339.434 429.894 339.517 429.43 338.848 428.626 338.422 428.246 337.616 428.291 336.854 428.761 335.754 428.253 335.456 428.173 333.973 428.047 333.591 427.582 333.293 427.418 331.471 426.998 330.283 427.212 329.479 427.131 328.123 427.987 325.541 427.068 321.26 428.691 317.282 428.696 315.75 428.849 316.1 429.125 316.035 429.985 316.576 430.656 315.718 431.313 315.779 431.581 315.978 431.071 317.083 431.649 317.532 432.108 316.97 432.562 317.204 432.678 317.894 432.209 318.212 431.763 318.047 431.545 318.672 431.672 319.303 431.212 319.446 431.033 319.771 430.794 319.688 430.848 320.097 431.21 320.6 431.876 320.361 431.982 320.918 432.599 321.448 433.736 321.867 434.163 322.955 434.929 323.18 435.116 324.115 435.694 324.203 435.858 324.822 436.217 324.864 436.478 326.197 436.06 327.271 438.728 330.502 440.069 330.995 440.945 332.029 441.478 332.171 444.517 334.612 447.054 335.108 447.658 335.462 448.439 335.295 450.52 334.234 451.061 334.211 451.549 334.404 452.692 335.684 454.189 336.115 454.582 338.435 454.288 339.317 454.805 340.76 454.313 343.175 454.823 344.515 454.633 347.248 454.779 347.635 456.932 349.165 456.094 351.095 455.872 352.255 456.038 353.167 456.794 354.122 456.991 354.801 455.866 357.573 455.799 358.239 456.239 359.671 457.699 361.015 459.198 363.314 459.724 364.863 459.576 366.015 461.414 367.984 462.177 367.828 463.249 368.054 463.956 368.881 467.647 369.052 468.43 369.547 468.683 370.221 471.223 372.107 471.681 371.961 473.001 372.417 473.094 372.823 473.476 373.067 473.395 373.844 474.153 373.885 474.863 373.582 475.219 374.261 475.754 374.452 476.598 373.45 496.942 373.382 496.526 375.477 496.994 377.64 497.349 378.009 497.899 378.072 498.973 377.134 500.065 377.083 500.386 377.52 500.068 378.393 500.358 379.388 499.825 379.917 497.57 380.332 495.851 381.035 494.907 382.177 494.803 383.283 495.313 384.179 495.671 385.939 495.445 386.939 494.963 387.673 496.05 388.865 495.828 390.408 496.613 391.129 500.626 392.205 501.051 392.842 501.37 394.388 502.597 396.276 503.711 397.415 504.688 397.863 505.735 398.727 507.588 398.781 509.207 399.192 511.636 398.492 514.638 399.023 517.627 397.977 518.143 398.486 520.349 398.918 521.783 398.567 521.878 400.981 522.192 400.921 523.283 399.818 523.914 400.195 526.602 404.028 527.428 404.321 528.38 404.122 529.429 405.606 531.527 406.74 532.053 407.275 533.011 409.72 533.859 410.968 535.076 411.699 537.796 412.733 540.063 413.134 542.471 413.127 543.711 413.461 547.334 415.262 550.298 415.108 559.948 411.751 560.417 410.995 560.096 409.292 560.247 408.723 561.223 407.839 562.027 407.868 562.761 408.406 563.263 410.074 562.844 411.407 561.707 413.035 561.837 414.232 564.281 416.292 565.328 418.79 566.733 419.471 568.467 419.134 570.451 419.716 572.244 419.35 573.984 420.043 574.366 420.221 582.883 419.505 587.089 418.44 582.805 423.019 577.26 427.339 576.682 428.467 577.17 430.473 577.013 431.009 575.638 432.663 574.299 432.938 573.816 433.418 573.769 435.682 573.341 437.313 574.316 438.158 574.381 438.558 572.994 440.937 571.464 444.475 571.108 447.156 571.495 450.173 571.34 451.019 570.872 451.317 569.109 451.479 567.195 452.635 566.351 454.281 564.66 455.465 562.909 458.319 561.153 460.174 560.464 463.808 560.66 465.672 561.508 468.419 559.963 472.692 559.467 473.389 559.445 473.953 559.875 476.569 560.653 477.631 562.28 479.077 562.581 480.938 562.112 481.921 560.557 483.647 558.46 487.12 555.101 490.164 553.647 493.165 553.499 494.799 553.679 496.37 554.52 499.387 554.584 500.472 553.572 502.637 553.118 505.062 552.298 507.199 550.463 510.095 550.287 510.788 550.331 512.279 551.108 515.461 550.972 516.423 550.404 517.644 549.373 518.839 547.726 521.989 547.76 523.227 548.903 526.238 548.755 528.469 548.45 529.071 544.516 530.153 539.868 532.882 537.418 533.982 536.812 535.358 536.801 538.109 535.611 539.245 534.805 540.633 532.144 543.158 531.694 544.183 531.263 546.861 530.858 547.146 529.822 546.927 528.069 545.3 526.526 544.521 524.873 544.549 523.375 545.322 522.878 545.934 521.305 552.454 521.373 554.155 519.657 557.95 519.723 563.961 519.174 564.403 517.344 564.668 515.15 566.262 513.682 567.785 512.857 569.603 512.31 572.714 511.738 574.139 509.041 578.181 506.225 581.265 505.501 582.611 505.616 584.841 507.561 591.263 507.615 592.197 507.138 593.93 504.642 596.694 503.631 597.269 501.769 597.831 501.623 598.022 502.128 599.139 499.272 598.771 495.548 599.125 493.421 598.948 491.027 597.264 488.013 596.377 486.062 596.377 483.846 595.934 481.718 594.87 477.906 591.944 476.665 591.501 471.349 594.034 467.795 596.962 462.358 600.098 461.103 603.861 458.699 606.371 454.936 608.357 450.963 609.298 448.505 609.619 z "
     gocart:regionname="Upper Demerara-Berbice" />
  <path
     style="fill:#e7298a"
     stroke-width="1"
     stroke="#000000"
     class="region-10"
     id="polygon-25"
     d="M 450.653 1079.215 442.97 1079.141 440.475 1079.967 440.237 1084.244 442.55 1089.662 444.317 1092.97 445.16 1096.33 444.783 1099.627 445.159 1101.067 444.209 1104.158 439.02 1109.49 437.929 1110.184 436.947 1110.212 434.433 1108.512 433.602 1106.929 431.329 1106.072 427.913 1108.4 426.475 1108.495 415.054 1106.948 408.817 1106.276 408.039 1107.043 405.441 1116.169 402.336 1119.306 394.741 1122.8 391.657 1122.359 386.693 1119.908 384.985 1118.354 379.41 1115.054 378.155 1114.114 378.059 1112.675 379.685 1110.581 379.562 1107.738 376.602 1104.247 372.439 1102.607 367.986 1102.579 364.136 1101.152 360.809 1100.429 350.679 1099.49 339.472 1096.614 331.565 1093.162 324.573 1089.119 321.928 1085.734 321.305 1084.151 317.377 1078.092 314.343 1075.09 312.749 1071.641 310.441 1070.539 305.212 1070.683 304.653 1070.188 301.362 1065.078 301.575 1065.034 299.807 1061.902 297.228 1058.973 295.488 1056.505 288.887 1051.341 285.783 1047.953 281.678 1041.784 280.254 1039.248 277.0 1037.649 272.683 1037.622 268.574 1038.159 265.983 1037.161 262.977 1034.931 259.11 1029.851 260.476 1027.9 263.856 1026.095 265.028 1023.855 264.545 1022.447 261.114 1021.565 258.592 1020.81 254.212 1019.48 250.17 1020.12 248.631 1019.301 248.604 1015.761 247.33 1012.065 248.727 1008.072 249.798 1005.516 250.21 1003.794 249.169 1001.206 250.325 1000.218 250.682 999.413 252.989 992.963 250.03 989.185 249.905 985.36 252.063 982.321 252.555 979.582 250.325 974.724 250.547 973.145 249.993 972.052 250.308 971.209 249.937 969.98 250.615 967.706 252.064 964.374 252.518 959.812 251.759 957.805 250.805 953.619 247.434 953.594 243.466 953.565 240.804 952.527 239.032 949.845 238.191 949.593 235.318 948.554 232.775 945.656 228.363 943.762 227.696 943.722 225.764 938.896 224.173 938.112 224.089 937.127 225.304 934.572 224.732 930.563 224.881 929.299 224.303 926.344 224.276 925.115 225.143 923.715 222.009 919.479 221.849 917.019 219.561 913.625 220.512 911.81 220.695 910.758 219.023 908.918 216.86 904.861 217.022 903.95 215.273 897.929 214.582 896.414 212.304 890.845 211.837 887.434 212.359 883.433 212.241 875.632 212.25 874.403 213.069 868.12 212.449 866.534 212.892 863.023 213.933 860.749 212.832 857.613 213.099 855.161 214.416 853.861 215.599 850.115 216.756 847.803 217.228 845.628 215.245 842.732 216.969 840.139 217.488 838.836 216.619 834.76 218.889 831.648 219.158 830.473 224.545 826.324 225.358 825.768 225.535 822.964 224.148 820.564 225.919 821.124 226.105 819.977 224.288 814.27 227.787 811.557 229.377 810.481 228.714 806.803 231.864 802.384 233.166 799.505 237.088 794.943 236.498 791.55 238.877 790.776 240.181 787.808 239.95 785.909 239.239 780.801 236.366 779.758 235.526 779.364 235.824 777.153 238.91 773.489 238.51 770.956 240.064 769.915 240.617 768.523 239.16 766.227 236.613 763.957 233.331 760.934 231.286 758.682 232.525 757.071 234.352 752.305 238.295 751.21 238.652 750.44 242.233 750.677 246.353 749.338 247.56 747.731 249.935 744.797 253.097 744.199 253.948 743.152 256.326 740.327 257.769 739.882 261.371 737.699 262.557 736.35 261.673 733.547 262.106 731.392 261.425 729.367 261.204 728.106 262.527 725.412 263.937 724.897 268.565 723.904 272.423 722.776 273.283 722.284 275.757 718.604 274.422 714.483 273.817 711.21 275.128 707.51 275.857 706.731 277.045 707.514 279.212 704.652 281.289 704.073 283.741 702.737 284.986 700.886 284.438 699.195 280.982 696.601 280.429 695.507 279.833 695.361 276.867 697.232 274.976 696.083 275.779 692.902 273.074 688.838 270.981 689.439 270.366 685.091 269.542 682.835 267.123 682.003 265.922 680.76 264.915 678.115 267.437 674.551 267.904 670.67 265.284 668.927 260.716 669.172 256.014 666.836 254.865 665.667 252.354 659.461 252.92 654.444 254.594 650.577 252.777 649.401 254.171 646.673 260.422 638.964 259.939 636.79 260.609 635.586 261.047 635.817 262.82 635.69 265.995 634.247 267.748 633.098 268.594 631.889 268.836 630.196 267.99 628.201 267.809 626.871 267.99 625.723 273.612 619.859 275.244 615.929 275.8 613.854 279.114 609.944 279.839 607.889 284.615 607.466 287.698 607.849 289.753 607.707 293.018 608.312 293.985 609.219 293.985 610.67 292.655 612.604 292.534 613.813 290.842 617.683 290.841 619.919 291.325 620.463 294.166 621.733 295.315 622.7 295.968 624.051 295.738 625.541 296.403 628.02 296.464 631.043 295.134 632.917 292.594 634.851 292.111 635.577 291.99 637.088 293.703 639.348 294.227 640.655 291.89 644.22 291.89 645.466 293.476 648.639 293.476 649.885 292.909 651.131 291.323 653.284 290.303 656.683 291.323 659.289 292.456 660.309 295.516 661.215 298.235 660.649 299.368 659.742 300.614 657.703 301.067 654.757 301.861 652.605 303.787 649.318 304.807 648.412 307.224 648.816 309.812 650.75 314.81 651.749 316.409 651.45 318.409 650.05 321.407 650.05 323.869 649.35 324.335 648.766 326.038 647.846 329.066 647.156 332.529 647.166 336.196 646.481 343.86 646.146 346.506 646.603 348.732 648.526 349.978 650.112 350.708 651.663 351.154 654.748 351.651 654.507 352.092 653.898 353.032 650.193 354.139 648.478 356.35 646.875 358.175 646.211 361.549 645.824 363.208 645.879 364.591 647.151 364.038 648.755 362.434 650.58 361.66 653.235 361.604 654.23 360.498 656.166 360.111 657.77 358.396 659.816 357.543 661.26 360.666 664.275 362.026 666.201 362.706 668.694 365.311 675.039 366.105 679.571 371.047 681.472 372.133 680.443 375.167 678.421 377.189 677.915 380.097 678.8 382.752 679.305 385.027 680.317 387.808 680.949 390.336 681.96 392.738 682.592 395.393 682.845 396.53 682.34 397.289 680.949 398.3 677.409 399.185 676.272 399.69 675.134 400.13 672.152 401.301 669.811 402.016 667.015 405.43 662.529 406.438 661.717 409.201 660.416 413.168 657.685 417.621 656.06 420.872 653.947 422.27 653.329 424.025 653.264 427.504 653.622 428.739 652.906 430.495 652.776 436.802 649.07 437.647 648.94 441.256 650.403 442.491 651.866 445.713 649.484 447.16 649.15 448.72 649.707 450.048 650.702 450.092 651.338 452.062 655.388 451.616 661.626 450.391 665.08 449.611 668.533 450.057 671.875 451.616 674.326 453.287 677.668 456.382 681.156 458.67 683.175 460.824 685.732 463.381 688.155 464.862 690.174 465.266 692.865 465.131 694.884 464.458 697.173 464.458 699.999 464.593 702.152 465.534 706.19 465.804 708.479 465.265 709.286 465.804 711.843 467.554 716.285 470.38 726.245 471.861 730.417 475.225 735.936 476.302 737.147 478.481 738.115 480.878 740.203 484.916 745.317 486.8 748.682 488.685 749.49 491.646 751.509 499.183 758.104 502.279 758.911 507.528 759.45 508.873 760.661 518.968 767.256 522.468 767.929 525.832 769.14 529.87 771.16 531.889 774.255 530.678 778.562 529.062 781.658 525.025 784.081 521.929 787.445 521.256 791.887 521.66 795.521 521.257 798.347 519.103 800.097 515.603 799.693 514.123 800.636 513.18 803.462 513.181 809.922 511.969 813.153 508.47 818.805 507.662 822.574 508.335 827.151 509.816 830.919 511.7 834.822 514.796 837.918 518.161 840.61 524.683 843.336 524.451 844.239 523.462 844.631 522.602 847.07 522.871 850.3 525.563 858.107 527.851 861.203 529.735 866.048 530.005 869.144 527.851 872.105 525.698 873.585 522.468 875.2 514.392 879.911 512.777 881.93 510.624 889.063 508.739 892.563 508.335 898.351 510.219 900.639 512.238 910.868 511.027 915.309 508.605 919.751 505.509 924.192 502.682 929.038 500.933 934.691 499.99 945.054 498.779 949.496 494.472 962.148 492.184 963.359 488.954 966.186 486.396 973.05 484.916 980.991 483.973 982.741 483.435 989.201 483.839 992.028 483.301 996.2 484.377 997.681 487.338 998.623 491.78 1001.987 493.529 1004.276 492.184 1007.775 490.03 1010.332 487.742 1009.929 485.454 1008.717 481.012 1008.044 477.109 1008.448 473.072 1010.198 469.438 1012.62 466.207 1015.043 463.784 1018.812 464.592 1021.907 464.727 1023.523 464.323 1025.003 462.707 1026.618 459.073 1028.772 457.055 1030.387 453.69 1033.886 452.479 1036.578 452.613 1039.539 453.959 1042.097 455.036 1043.577 456.382 1044.788 458.132 1044.923 462.708 1041.827 464.457 1042.231 465.265 1043.577 465.436 1044.547 465.669 1045.865 465.803 1051.384 464.727 1059.594 462.842 1060.805 456.651 1069.823 456.516 1072.111 457.189 1074.265 456.517 1076.149 455.473 1076.886 454.228 1077.764 452.748 1078.168 450.653 1079.215 z "
     gocart:regionname="Upper Takutu-Upper Essequibo" />
  <text
     id="text101"
     inkscape:label="gocartlabel"
     style="font-size:18.6667px;line-height:1.25;font-family:sans-serif"
     x="252.16555334062622"
     xml:space="preserve"
     y="139.44831855694065"><tspan
       id="tspan101"
       sodipodi:roll="line"
       x="252.16555334062622"
       y="139.44831855694065">BA</tspan></text>
  <text
     id="text39"
     inkscape:label="gocartlabel"
     style="font-size:18.6667px;line-height:1.25;font-family:sans-serif"
     x="219.84971816692052"
     xml:space="preserve"
     y="363.0961328143525"><tspan
       id="tspan37"
       sodipodi:roll="line"
       x="219.84971816692052"
       y="363.0961328143525">CU</tspan></text>
  <text
     id="text43"
     inkscape:label="gocartlabel"
     style="font-size:18.6667px;line-height:1.25;font-family:sans-serif"
     x="492.14026"
     xml:space="preserve"
     y="302.13419"><tspan
       id="tspan41"
       sodipodi:roll="line"
       x="492.14026"
       y="302.13419">DE</tspan></text>
  <text
     id="text47"
     inkscape:label="gocartlabel"
     style="font-size:18.6667px;line-height:1.25;font-family:sans-serif"
     x="574.05017"
     xml:space="preserve"
     y="924.97717"><tspan
       id="tspan45"
       sodipodi:roll="line"
       x="574.05017"
       y="924.97717">EB</tspan></text>
  <text
     id="text51"
     inkscape:label="gocartlabel"
     style="font-size:18.6667px;line-height:1.25;font-family:sans-serif"
     x="443.22369"
     xml:space="preserve"
     y="301.18893"><tspan
       id="tspan49"
       sodipodi:roll="line"
       x="443.22369"
       y="301.18893">ES</tspan></text>
  <text
     id="text55"
     inkscape:label="gocartlabel"
     style="font-size:18.6667px;line-height:1.25;font-family:sans-serif"
     x="523.65088"
     xml:space="preserve"
     y="363.96909"><tspan
       id="tspan53"
       sodipodi:roll="line"
       x="523.65088"
       y="363.96909">MA</tspan></text>
  <text
     id="text59"
     inkscape:label="gocartlabel"
     style="font-size:18.6667px;line-height:1.25;font-family:sans-serif"
     x="377.26028"
     xml:space="preserve"
     y="212.45461"><tspan
       id="tspan57"
       sodipodi:roll="line"
       x="377.26028"
       y="212.45461">PM</tspan></text>
  <text
     id="text63"
     inkscape:label="gocartlabel"
     style="font-size:18.6667px;line-height:1.25;font-family:sans-serif"
     x="303.17908"
     xml:space="preserve"
     y="560.87463"><tspan
       id="tspan61"
       sodipodi:roll="line"
       x="303.17908"
       y="560.87463">PT</tspan></text>
  <text
     id="text67"
     inkscape:label="gocartlabel"
     style="font-size:18.6667px;line-height:1.25;font-family:sans-serif"
     x="456.21609"
     xml:space="preserve"
     y="495.76608"><tspan
       id="tspan65"
       sodipodi:roll="line"
       x="456.21609"
       y="495.76608">UD</tspan></text>
  <text
     id="text71"
     inkscape:label="gocartlabel"
     style="font-size:18.6667px;line-height:1.25;font-family:sans-serif"
     x="362.07504"
     xml:space="preserve"
     y="869.81024"><tspan
       id="tspan69"
       sodipodi:roll="line"
       x="362.07504"
       y="869.81024">UT</tspan></text>
</svg>
