<?xml version="1.0" ?><svg xmlns="http://www.w3.org/2000/svg" xmlns:gocart="https://go-cart.io" baseProfile="full" width="750.0" height="1321.83" xmlns:dc="http://purl.org/dc/elements/1.1/" xmlns:cc="http://creativecommons.org/ns#" xmlns:rdf="http://www.w3.org/1999/02/22-rdf-syntax-ns#" xmlns:svg="http://www.w3.org/2000/svg" xmlns:sodipodi="http://sodipodi.sourceforge.net/DTD/sodipodi-0.dtd" xmlns:inkscape="http://www.inkscape.org/namespaces/inkscape" inkscape:version="1.0beta2 (2b71d25, 2019-12-03)" sodipodi:docname="data/srilanka_coloured.svg" id="svg337">
<path gocart:regionname="Ampara" d="M 691.141 1122.804 685.258 1122.706 677.526 1113.977 670.617 1113.356 658.96 1100.698 659.65 1095.564 662.588 1040.79 665.554 1002.039 665.717 988.382 668.55 971.844 661.787 964.837 658.384 949.611 662.407 940.516 660.718 935.221 654.628 934.835 632.729 927.64 628.232 924.631 626.664 912.348 622.178 906.098 629.674 891.621 636.832 885.861 636.298 879.623 631.379 872.704 629.029 862.176 615.406 849.528 618.925 844.253 612.655 825.253 613.744 815.437 609.24 812.632 614.906 804.981 607.244 803.507 595.908 810.939 579.382 824.099 583.544 833.457 575.893 839.011 572.948 844.444 561.043 845.967 563.012 857.413 562.375 869.269 552.654 875.301 546.857 871.887 544.62 864.942 543.019 855.566 533.362 843.018 527.573 846.035 521.65 833.58 521.34 827.164 515.15 807.361 520.756 797.772 520.188 790.705 523.033 784.04 522.058 771.828 517.183 764.661 497.668 770.596 490.542 775.119 479.03 785.524 467.153 787.526 465.425 780.89 458.519 771.723 457.953 757.692 448.2 751.581 445.826 747.392 451.474 735.056 449.059 725.806 449.591 714.698 469.866 715.648 476.427 711.609 485.062 713.496 493.549 725.791 519.984 735.109 525.407 739.896 528.323 731.402 533.604 729.412 532.077 713.812 534.571 708.721 561.881 709.997 577.271 732.955 582.526 736.515 603.507 741.45 604.177 749.004 599.173 763.971 605.738 774.98 629.38 786.412 662.343 786.56 671.233 783.394 676.115 798.62 676.326 821.87 685.97 816.244 698.431 804.22 706.627 803.494 722.182 803.177 728.466 800.059 728.925 800.627 730.632 809.542 736.933 819.198 745.344 846.969 746.13 861.801 744.84 871.663 744.242 895.137 731.598 902.302 736.122 912.057 742.308 910.446 742.901 923.777 747.17 943.765 750.0 950.706 745.435 964.144 745.637 970.34 738.086 991.201 739.139 1001.432 734.465 1008.484 730.004 1028.961 732.37 1038.345 724.228 1048.784 723.497 1057.61 714.228 1070.023 715.743 1076.122 711.271 1093.5 703.869 1100.556 697.7 1115.214 691.141 1122.804 z " id="polygon-1" class="region-1" stroke="#000000" stroke-width="1" style="fill:#7570b3"/>
<path gocart:regionname="Anuradhapura" d="M 284.41 683.136 277.129 677.71 275.963 668.838 277.755 660.821 272.217 648.132 271.252 638.377 266.458 635.495 261.227 637.893 259.131 623.842 256.34 618.337 257.649 605.45 241.349 601.163 231.428 592.678 220.458 580.892 207.697 581.745 200.167 574.804 179.896 569.693 178.375 566.103 158.085 559.689 150.967 554.151 141.657 545.43 137.58 546.46 129.405 541.059 125.791 544.018 116.222 543.498 115.188 534.988 110.882 522.416 107.639 505.476 100.378 495.773 101.433 487.354 108.919 485.699 112.792 477.692 121.665 471.706 127.214 463.372 131.141 452.644 127.593 442.273 133.545 442.593 135.34 405.16 131.907 394.124 143.693 399.547 155.027 400.986 195.938 390.581 196.509 407.961 199.809 411.588 208.165 413.255 213.742 431.113 230.096 436.06 235.276 426.833 244.529 423.3 244.157 413.603 250.466 406.892 254.832 397.718 268.105 386.573 274.491 389.146 287.183 398.112 308.459 383.933 319.632 368.521 324.776 366.296 335.805 349.146 326.573 337.106 315.821 333.726 317.027 326.727 334.055 327.286 341.282 326.16 357.28 316.714 370.022 314.754 380.702 309.537 389.361 311.109 403.791 320.88 415.148 326.815 423.302 337.997 413.659 354.452 412.318 366.264 416.405 369.7 416.561 376.464 423.354 387.726 424.056 393.063 419.441 396.741 416.655 405.475 418.384 411.964 424.568 415.875 425.209 423.006 434.071 433.78 435.359 449.148 442.021 456.842 450.055 460.17 440.632 467.275 437.569 472.223 433.275 486.481 428.395 496.984 427.637 506.787 423.324 510.337 418.662 525.869 387.307 526.555 381.729 542.51 381.103 551.149 372.147 569.784 371.602 594.371 376.379 600.976 369.273 612.388 371.043 616.488 354.121 623.425 346.366 635.148 341.285 632.996 336.276 638.686 336.517 649.485 329.372 654.399 318.676 669.375 310.592 665.087 306.709 671.704 284.41 683.136 z " id="polygon-2" class="region-2" stroke="#000000" stroke-width="1" style="fill:#d95f02"/>
<path gocart:regionname="Badulla" d="M 429.109 1064.183 414.982 1071.632 404.976 1074.342 395.893 1070.25 390.435 1058.072 404.518 1053.172 398.695 1045.015 388.791 1035.799 389.069 1028.914 394.404 1028.632 398.81 1022.187 392.156 1019.686 398.795 1010.728 393.085 1004.604 394.357 1000.353 389.424 991.637 390.114 986.512 396.241 982.804 397.585 974.51 407.265 965.986 419.512 966.274 426.286 962.095 429.885 945.699 438.637 937.376 441.743 931.452 437.956 928.125 441.155 916.437 436.607 911.463 440.702 905.515 435.464 890.887 444.214 892.272 447.219 887.124 456.097 885.435 458.736 880.721 453.29 859.073 445.037 834.055 447.448 825.182 443.235 820.019 444.895 814.686 444.612 793.61 443.751 767.119 445.495 761.368 445.826 747.392 448.2 751.581 457.953 757.692 458.519 771.723 465.425 780.89 467.153 787.526 479.03 785.524 490.542 775.119 497.668 770.596 517.183 764.661 522.058 771.828 523.033 784.04 520.188 790.705 520.756 797.772 515.15 807.361 521.34 827.164 521.65 833.58 527.573 846.035 533.362 843.018 543.019 855.566 544.62 864.942 531.313 868.343 532.96 877.597 524.345 888.982 517.268 893.791 516.326 899.774 508.833 899.921 505.464 893.125 500.735 894.92 494.547 905.461 497.248 911.101 507.787 921.37 510.332 930.128 517.357 926.784 525.87 926.378 530.769 930.017 534.999 940.74 536.044 955.509 531.638 962.727 532.514 970.114 528.018 977.949 516.531 985.157 507.15 995.521 497.111 999.163 493.104 1005.125 499.825 1013.069 486.033 1016.732 483.079 1023.743 475.625 1021.523 474.1 1031.704 475.324 1039.092 471.576 1044.007 481.996 1050.212 479.302 1057.894 475.419 1059.771 474.054 1076.017 475.53 1082.798 481.896 1088.053 467.224 1096.933 461.867 1103.114 461.358 1112.794 452.089 1102.46 453.204 1088.691 446.356 1088.008 446.558 1081.843 437.29 1069.744 429.109 1064.183 z " id="polygon-3" class="region-3" stroke="#000000" stroke-width="1" style="fill:#e7298a"/>
<path gocart:regionname="Batticaloa" d="M 706.627 803.494 698.431 804.22 685.97 816.244 676.326 821.87 676.115 798.62 671.233 783.394 662.343 786.56 629.38 786.412 605.738 774.98 599.173 763.971 604.177 749.004 603.507 741.45 582.526 736.515 577.271 732.955 561.881 709.997 534.571 708.721 529.754 693.887 529.027 680.227 531.763 670.558 530.227 662.867 533.063 658.198 533.004 647.684 538.453 642.085 545.756 641.915 550.657 638.599 556.182 641.383 567.748 641.669 567.703 634.928 556.376 610.588 556.841 588.42 558.91 539.513 557.517 535.153 563.612 531.165 577.686 534.916 588.148 535.9 589.179 531.571 591.628 543.277 599.231 560.351 598.587 565.14 602.088 578.937 597.124 586.736 588.958 568.91 588.0 556.238 582.575 555.401 581.753 568.828 594.6 588.054 600.588 588.513 607.503 583.902 608.459 594.791 616.631 613.648 624.693 621.52 636.31 627.507 634.82 632.674 637.084 641.87 628.85 643.106 627.667 661.509 635.92 676.129 626.011 677.566 625.277 686.862 638.367 676.136 628.227 661.32 628.948 645.077 635.499 644.971 642.512 641.014 645.333 647.864 643.097 653.782 647.624 670.767 654.851 679.39 661.87 678.719 668.92 691.849 677.925 699.716 684.861 703.176 691.44 713.395 685.168 714.347 679.476 723.936 678.228 710.513 669.136 705.931 659.477 698.628 648.725 707.38 650.982 713.571 658.203 717.595 662.309 710.17 672.808 715.218 673.103 722.071 683.979 728.527 688.117 736.029 685.411 741.011 697.877 743.988 703.412 748.107 713.186 762.262 710.298 768.653 714.545 782.351 706.499 787.815 712.328 796.722 706.627 803.494 z " id="polygon-4" class="region-4" stroke="#000000" stroke-width="1" style="fill:#1b9e77"/>
<path gocart:regionname="Batticaloa" d="M 717.946 754.224 725.032 779.228 725.428 787.865 722.908 796.5 718.232 796.614 712.869 786.956 716.972 779.451 713.675 770.242 715.255 765.732 705.368 742.47 700.683 742.574 698.321 733.378 691.918 717.901 693.687 713.108 708.346 734.201 717.946 754.224 z " id="polygon-5" class="region-4" stroke="#000000" stroke-width="1" style="fill:#1b9e77"/>
<path gocart:regionname="Colombo" d="M 82.577 1054.521 75.009 1036.013 68.667 1014.784 68.984 1009.431 65.241 991.119 62.069 981.537 66.217 971.405 71.669 965.966 76.542 973.885 87.578 976.506 111.583 979.971 120.623 979.314 134.215 989.552 144.742 989.053 149.395 974.543 160.191 967.008 172.032 968.579 176.335 965.982 189.483 967.645 191.105 975.46 185.962 979.773 186.642 986.331 177.678 996.845 176.037 1006.615 181.42 1008.905 183.949 1015.329 182.439 1021.482 176.308 1021.489 166.148 1017.643 155.014 1023.978 157.66 1031.832 150.556 1032.706 146.441 1021.137 141.505 1020.928 136.669 1029.319 129.972 1024.667 108.176 1040.165 101.6 1040.065 96.251 1043.534 88.786 1043.305 86.267 1038.007 78.848 1033.933 82.577 1054.521 z " id="polygon-6" class="region-5" stroke="#000000" stroke-width="1" style="fill:#e6ab02"/>
<path gocart:regionname="Galle" d="M 245.413 1308.373 221.078 1299.061 203.693 1296.605 195.238 1292.185 197.311 1287.024 180.871 1282.502 171.484 1273.01 157.684 1262.105 149.143 1252.143 144.463 1238.901 136.674 1231.92 133.123 1216.918 127.034 1205.927 127.895 1195.227 124.154 1182.735 119.098 1172.213 116.674 1160.756 111.716 1147.804 119.795 1148.71 136.668 1158.693 145.2 1160.817 153.115 1165.622 159.524 1172.705 167.737 1172.516 179.575 1176.706 185.598 1175.073 188.438 1168.082 197.665 1169.695 212.44 1183.693 217.269 1180.298 213.787 1171.501 213.578 1164.111 221.108 1162.45 239.865 1152.142 244.523 1152.583 257.081 1163.903 264.337 1163.139 281.398 1168.063 282.851 1172.304 277.039 1173.108 272.564 1182.324 279.522 1187.954 282.986 1195.265 276.017 1201.765 252.186 1183.722 243.471 1185.774 246.227 1191.929 254.091 1196.595 263.85 1210.464 264.272 1219.489 260.263 1223.854 247.968 1224.374 251.637 1232.162 244.668 1244.661 246.993 1251.646 252.63 1257.964 263.715 1264.854 254.225 1273.162 249.011 1285.965 254.308 1292.582 247.199 1294.075 244.397 1302.615 245.413 1308.373 z " id="polygon-7" class="region-6" stroke="#000000" stroke-width="1" style="fill:#d95f02"/>
<path gocart:regionname="Gampaha" d="M 71.669 965.966 70.936 958.528 61.821 918.445 68.48 918.083 72.332 913.584 70.668 901.563 65.717 891.978 57.945 888.206 61.898 880.421 63.234 865.791 72.289 863.628 85.152 868.127 90.675 863.883 96.066 865.596 98.927 860.871 104.612 861.023 117.307 850.613 137.054 861.786 157.861 846.729 162.81 849.843 164.248 855.682 181.214 871.559 177.808 879.48 177.94 893.197 170.033 893.965 167.388 898.032 167.655 908.531 174.527 913.352 186.092 915.095 178.343 924.399 171.188 939.691 176.335 965.982 172.032 968.579 160.191 967.008 149.395 974.543 144.742 989.053 134.215 989.552 120.623 979.314 111.583 979.971 87.578 976.506 76.542 973.885 71.669 965.966 z " id="polygon-8" class="region-7" stroke="#000000" stroke-width="1" style="fill:#1b9e77"/>
<path gocart:regionname="Hambantota" d="M 341.928 1193.126 351.493 1192.47 363.003 1196.326 382.024 1205.538 395.271 1206.616 404.375 1204.543 409.639 1206.819 413.59 1213.292 423.183 1216.09 437.21 1215.362 426.411 1196.576 442.316 1186.983 459.926 1179.591 455.875 1171.261 458.494 1162.709 465.99 1164.291 477.398 1154.363 499.295 1154.115 502.364 1162.162 509.304 1163.644 515.767 1159.464 528.231 1178.367 539.199 1181.29 546.61 1172.671 559.118 1168.031 568.62 1167.276 597.739 1155.465 613.5 1158.216 615.672 1154.691 614.457 1144.709 616.415 1128.814 630.561 1120.742 644.616 1108.895 650.082 1110.155 656.548 1106.33 658.96 1100.698 670.617 1113.356 677.526 1113.977 685.258 1122.706 691.141 1122.804 687.776 1131.568 676.898 1139.473 674.091 1144.735 662.735 1150.012 661.714 1156.491 644.264 1168.254 640.608 1172.296 630.748 1173.813 622.395 1179.27 617.058 1190.355 602.507 1195.913 589.092 1211.138 579.704 1216.968 570.782 1219.607 563.56 1228.908 553.227 1230.045 544.963 1233.996 532.094 1236.542 529.561 1240.581 522.137 1236.175 512.741 1235.807 514.343 1242.283 511.433 1246.697 496.687 1252.903 496.782 1255.813 470.947 1260.522 459.296 1260.903 446.049 1267.104 433.93 1267.953 431.768 1270.945 420.494 1275.09 409.688 1276.876 403.487 1280.914 391.741 1282.417 385.635 1285.984 379.149 1294.714 370.223 1296.028 360.187 1303.708 348.492 1298.181 349.666 1287.756 340.74 1288.004 338.528 1279.177 349.373 1275.174 345.968 1266.296 348.336 1254.69 340.465 1256.275 334.046 1250.945 339.286 1240.315 330.186 1238.766 322.109 1232.82 321.556 1227.095 328.216 1214.876 333.444 1209.714 341.928 1193.126 z " id="polygon-9" class="region-8" stroke="#000000" stroke-width="1" style="fill:#d95f02"/>
<path gocart:regionname="Jaffna" d="M 3.555 94.285 15.549 103.15 25.332 104.494 27.168 115.484 24.257 121.487 18.01 121.28 2.934 112.875 0.0 97.935 3.555 94.285 z " id="polygon-10" class="region-9" stroke="#000000" stroke-width="1" style="fill:#1b9e77"/>
<path gocart:regionname="Jaffna" d="M 117.39 77.976 104.631 74.849 91.42 68.318 85.716 74.239 81.343 71.787 71.73 76.926 70.673 89.411 65.542 90.806 51.666 87.763 53.553 79.505 61.934 81.97 64.941 72.776 71.08 76.924 81.25 71.505 74.27 67.542 65.182 51.743 64.552 44.324 78.801 45.583 84.19 51.418 93.875 52.569 95.534 60.649 107.066 68.751 114.437 65.106 119.735 70.376 117.39 77.976 z " id="polygon-11" class="region-9" stroke="#000000" stroke-width="1" style="fill:#1b9e77"/>
<path gocart:regionname="Jaffna" d="M 269.862 100.563 267.278 88.133 251.814 76.061 228.83 62.998 216.664 48.952 203.136 74.86 177.986 61.76 173.236 60.907 175.266 71.895 183.555 73.412 180.656 79.228 174.785 80.532 165.575 71.784 149.825 73.351 135.591 63.556 124.409 62.969 117.067 55.535 104.138 46.21 98.17 48.824 94.751 37.549 90.577 31.059 83.028 32.824 81.234 41.739 75.731 44.354 68.286 41.142 71.189 36.079 68.782 29.97 72.43 24.345 85.746 25.506 87.904 19.973 93.678 19.517 99.935 13.43 108.231 9.882 129.286 5.799 151.815 9.039 164.492 3.523 180.882 2.802 189.452 0.0 200.808 2.647 212.512 23.602 228.873 47.19 238.268 57.435 250.554 68.059 288.171 97.386 295.9 105.466 315.743 120.781 312.015 122.751 299.809 112.885 287.976 107.15 276.237 104.136 269.862 100.563 z " id="polygon-12" class="region-9" stroke="#000000" stroke-width="1" style="fill:#1b9e77"/>
<path gocart:regionname="Kalutara" d="M 111.716 1147.804 106.749 1140.839 109.675 1131.55 108.471 1121.408 101.737 1104.406 97.817 1090.505 90.433 1071.998 82.014 1055.072 82.304 1054.803 82.577 1054.521 78.848 1033.933 86.267 1038.007 88.786 1043.305 96.251 1043.534 101.6 1040.065 108.176 1040.165 129.972 1024.667 136.669 1029.319 141.505 1020.928 146.441 1021.137 150.556 1032.706 157.66 1031.832 155.014 1023.978 166.148 1017.643 176.308 1021.489 180.326 1031.647 180.492 1039.43 185.09 1048.977 184.021 1052.666 188.422 1062.869 197.195 1069.947 201.678 1084.64 210.211 1087.484 217.717 1094.94 221.376 1103.123 214.943 1105.875 218.719 1112.577 239.398 1143.289 244.523 1152.583 239.865 1152.142 221.108 1162.45 213.578 1164.111 213.787 1171.501 217.269 1180.298 212.44 1183.693 197.665 1169.695 188.438 1168.082 185.598 1175.073 179.575 1176.706 167.737 1172.516 159.524 1172.705 153.115 1165.622 145.2 1160.817 136.668 1158.693 119.795 1148.71 111.716 1147.804 z " id="polygon-13" class="region-10" stroke="#000000" stroke-width="1" style="fill:#7570b3"/>
<path gocart:regionname="Kandy" d="M 272.219 948.979 273.041 936.843 269.119 924.355 269.652 917.327 284.495 915.435 288.558 907.967 300.833 901.359 288.843 886.615 292.184 879.328 285.953 871.398 277.705 869.511 278.335 862.339 269.213 852.632 259.822 846.253 258.338 837.825 266.706 837.34 273.195 830.512 278.442 820.474 289.047 827.445 290.756 818.41 303.22 814.388 300.355 811.035 306.769 803.948 314.241 813.85 323.265 818.561 336.592 828.63 351.562 827.834 354.44 824.456 355.893 812.64 352.497 804.061 361.126 798.404 370.097 807.004 382.942 813.886 393.384 802.9 402.746 798.94 419.457 798.544 426.108 801.965 430.138 793.754 444.612 793.61 444.895 814.686 443.235 820.019 447.448 825.182 445.037 834.055 453.29 859.073 458.736 880.721 456.097 885.435 447.219 887.124 444.214 892.272 435.464 890.887 418.786 891.475 417.069 895.16 403.481 894.316 387.255 890.295 386.364 882.112 370.506 866.038 369.976 873.726 373.99 879.493 376.119 891.001 360.114 907.996 347.834 927.602 339.578 924.145 331.31 924.868 328.014 931.601 310.867 933.467 302.332 931.957 305.42 944.98 312.923 951.673 319.254 960.456 310.424 977.516 302.983 978.959 297.664 971.034 289.915 964.598 285.694 953.72 275.58 945.973 272.219 948.979 z " id="polygon-14" class="region-11" stroke="#000000" stroke-width="1" style="fill:#d95f02"/>
<path gocart:regionname="Kegalle" d="M 283.172 1015.448 277.974 1015.816 260.438 1012.209 250.245 1006.13 239.315 1008.861 230.938 1015.992 220.349 1004.954 211.877 1007.371 200.365 991.796 194.439 991.269 193.558 984.137 186.642 986.331 185.962 979.773 191.105 975.46 189.483 967.645 176.335 965.982 171.188 939.691 178.343 924.399 186.092 915.095 174.527 913.352 167.655 908.531 167.388 898.032 170.033 893.965 177.94 893.197 177.808 879.48 181.214 871.559 205.671 853.603 217.984 851.807 225.747 847.981 231.031 848.76 232.138 840.418 235.762 836.048 234.783 828.402 247.569 824.498 253.246 827.733 258.338 837.825 259.822 846.253 269.213 852.632 278.335 862.339 277.705 869.511 285.953 871.398 292.184 879.328 288.843 886.615 300.833 901.359 288.558 907.967 284.495 915.435 269.652 917.327 269.119 924.355 273.041 936.843 272.219 948.979 273.639 952.54 261.717 963.395 265.659 967.141 261.908 987.767 281.602 994.678 282.933 1002.166 288.192 1010.654 283.172 1015.448 z " id="polygon-15" class="region-12" stroke="#000000" stroke-width="1" style="fill:#66a61e"/>
<path gocart:regionname="Kilinochchi" d="M 112.132 178.148 118.551 185.392 108.752 187.624 107.178 182.644 112.132 178.148 z " id="polygon-16" class="region-13" stroke="#000000" stroke-width="1" style="fill:#66a61e"/>
<path gocart:regionname="Kilinochchi" d="M 181.553 202.353 167.395 211.088 156.461 211.698 157.613 193.92 154.453 187.905 158.287 183.03 155.499 177.861 146.093 171.365 137.795 169.752 138.464 162.054 135.487 158.668 135.597 149.843 156.78 140.307 166.859 134.598 179.845 118.66 168.595 103.149 151.286 89.22 159.583 87.171 165.534 94.318 177.36 99.784 180.345 98.193 188.91 104.122 193.384 102.909 206.796 109.407 203.709 117.852 207.144 127.152 219.523 129.316 230.168 127.559 233.9 124.56 248.821 119.789 249.019 108.992 235.054 94.986 227.418 91.785 217.832 83.228 203.136 74.86 216.664 48.952 228.83 62.998 251.814 76.061 267.278 88.133 269.862 100.563 265.8 103.188 252.94 102.424 253.678 109.185 265.789 113.797 276.416 113.9 284.799 121.324 297.475 120.207 304.743 123.686 301.849 130.068 311.543 132.233 315.555 127.353 323.571 129.047 320.442 140.997 314.11 144.688 312.312 158.99 304.527 154.803 296.628 145.954 294.737 155.425 290.25 166.017 254.15 167.881 253.695 178.531 247.279 181.187 225.1 178.342 211.005 181.942 205.905 180.202 195.68 182.835 188.901 189.021 190.383 203.161 181.553 202.353 z " id="polygon-17" class="region-13" stroke="#000000" stroke-width="1" style="fill:#66a61e"/>
<path gocart:regionname="Kurunegala" d="M 258.338 837.825 253.246 827.733 247.569 824.498 234.783 828.402 235.762 836.048 232.138 840.418 231.031 848.76 225.747 847.981 217.984 851.807 205.671 853.603 181.214 871.559 164.248 855.682 162.81 849.843 157.861 846.729 137.054 861.786 117.307 850.613 104.612 861.023 98.927 860.871 96.066 865.596 95.013 841.881 91.519 826.892 82.758 776.692 82.467 761.44 84.295 748.076 89.088 743.965 90.147 736.682 94.451 728.513 101.694 730.907 104.097 726.461 100.206 717.743 108.231 713.972 116.333 706.862 113.928 701.376 116.718 695.807 115.453 684.467 123.132 674.426 128.029 673.608 130.265 665.235 138.601 662.562 141.205 648.826 166.313 639.661 161.215 630.287 166.773 621.129 165.731 606.84 168.003 597.735 159.45 593.553 155.102 587.101 152.745 569.802 149.965 563.809 150.967 554.151 158.085 559.689 178.375 566.103 179.896 569.693 200.167 574.804 207.697 581.745 220.458 580.892 231.428 592.678 241.349 601.163 257.649 605.45 256.34 618.337 259.131 623.842 261.227 637.893 266.458 635.495 271.252 638.377 272.217 648.132 277.755 660.821 275.963 668.838 277.129 677.71 284.41 683.136 283.367 693.953 290.536 697.465 300.675 719.958 302.116 734.216 301.165 741.677 306.812 746.199 310.266 754.032 309.347 760.538 302.07 772.564 309.263 787.048 306.769 803.948 300.355 811.035 303.22 814.388 290.756 818.41 289.047 827.445 278.442 820.474 273.195 830.512 266.706 837.34 258.338 837.825 z " id="polygon-18" class="region-14" stroke="#000000" stroke-width="1" style="fill:#e6ab02"/>
<path gocart:regionname="Mannar" d="M 91.224 429.241 90.406 418.367 97.805 410.309 98.021 397.07 100.745 390.316 99.832 380.737 103.301 374.924 90.097 348.136 88.515 345.41 92.759 326.735 93.061 317.909 73.899 287.443 53.501 270.115 40.547 262.756 25.628 256.987 17.606 255.743 16.136 248.132 25.476 245.718 44.414 248.119 67.911 256.068 83.091 268.687 74.221 271.013 76.819 277.029 85.481 284.842 92.288 287.957 81.913 293.002 91.232 300.16 98.793 300.271 107.682 291.653 112.353 290.723 113.954 283.967 122.086 278.163 129.933 275.55 139.106 262.048 143.05 249.193 142.506 240.46 151.023 227.614 156.461 211.698 167.395 211.088 181.553 202.353 182.764 223.048 190.009 234.169 192.905 244.312 189.65 249.682 190.828 263.442 182.497 267.046 176.185 283.671 175.777 299.335 200.81 298.927 231.252 296.443 240.535 300.208 245.012 304.656 247.014 314.926 251.466 324.396 252.183 330.985 241.7 336.716 223.613 339.852 216.858 343.34 194.08 340.731 186.527 353.846 183.822 361.641 177.256 359.161 173.966 366.284 179.145 369.901 195.938 390.581 155.027 400.986 143.693 399.547 131.907 394.124 135.34 405.16 133.545 442.593 127.593 442.273 110.001 433.566 95.55 431.994 91.224 429.241 z " id="polygon-19" class="region-15" stroke="#000000" stroke-width="1" style="fill:#7570b3"/>
<path gocart:regionname="Matale" d="M 306.769 803.948 309.263 787.048 302.07 772.564 309.347 760.538 310.266 754.032 306.812 746.199 301.165 741.677 302.116 734.216 300.675 719.958 290.536 697.465 283.367 693.953 284.41 683.136 306.709 671.704 310.592 665.087 318.676 669.375 329.372 654.399 336.517 649.485 336.276 638.686 341.285 632.996 346.366 635.148 354.121 623.425 371.043 616.488 379.036 622.667 378.713 631.644 390.816 626.237 396.75 636.928 392.348 646.474 387.502 678.35 384.353 686.61 375.317 687.482 373.349 708.432 378.694 729.503 398.268 728.371 399.962 724.651 409.528 725.593 414.014 716.939 426.959 719.234 449.591 714.698 449.059 725.806 451.474 735.056 445.826 747.392 445.495 761.368 443.751 767.119 444.612 793.61 430.138 793.754 426.108 801.965 419.457 798.544 402.746 798.94 393.384 802.9 382.942 813.886 370.097 807.004 361.126 798.404 352.497 804.061 355.893 812.64 354.44 824.456 351.562 827.834 336.592 828.63 323.265 818.561 314.241 813.85 306.769 803.948 z " id="polygon-20" class="region-16" stroke="#000000" stroke-width="1" style="fill:#1b9e77"/>
<path gocart:regionname="Matara" d="M 245.413 1308.373 244.397 1302.615 247.199 1294.075 254.308 1292.582 249.011 1285.965 254.225 1273.162 263.715 1264.854 252.63 1257.964 246.993 1251.646 244.668 1244.661 251.637 1232.162 247.968 1224.374 260.263 1223.854 264.272 1219.489 263.85 1210.464 254.091 1196.595 246.227 1191.929 243.471 1185.774 252.186 1183.722 276.017 1201.765 282.986 1195.265 279.522 1187.954 272.564 1182.324 277.039 1173.108 282.851 1172.304 295.525 1170.105 295.753 1165.638 317.227 1162.194 324.911 1162.78 322.267 1179.873 339.191 1177.245 341.928 1193.126 333.444 1209.714 328.216 1214.876 321.556 1227.095 322.109 1232.82 330.186 1238.766 339.286 1240.315 334.046 1250.945 340.465 1256.275 348.336 1254.69 345.968 1266.296 349.373 1275.174 338.528 1279.177 340.74 1288.004 349.666 1287.756 348.492 1298.181 360.187 1303.708 357.817 1310.108 348.981 1308.793 326.987 1314.327 324.918 1319.301 318.621 1321.834 298.792 1315.725 292.022 1318.35 273.978 1317.309 268.908 1309.045 262.611 1305.569 256.405 1311.29 245.413 1308.373 z " id="polygon-21" class="region-17" stroke="#000000" stroke-width="1" style="fill:#e6ab02"/>
<path gocart:regionname="Moneragala" d="M 426.411 1196.576 419.144 1178.764 410.136 1176.092 398.975 1160.783 398.28 1148.221 400.42 1142.421 395.366 1130.397 407.527 1110.244 411.702 1089.913 420.991 1080.416 423.79 1069.885 429.109 1064.183 437.29 1069.744 446.558 1081.843 446.356 1088.008 453.204 1088.691 452.089 1102.46 461.358 1112.794 461.867 1103.114 467.224 1096.933 481.896 1088.053 475.53 1082.798 474.054 1076.017 475.419 1059.771 479.302 1057.894 481.996 1050.212 471.576 1044.007 475.324 1039.092 474.1 1031.704 475.625 1021.523 483.079 1023.743 486.033 1016.732 499.825 1013.069 493.104 1005.125 497.111 999.163 507.15 995.521 516.531 985.157 528.018 977.949 532.514 970.114 531.638 962.727 536.044 955.509 534.999 940.74 530.769 930.017 525.87 926.378 517.357 926.784 510.332 930.128 507.787 921.37 497.248 911.101 494.547 905.461 500.735 894.92 505.464 893.125 508.833 899.921 516.326 899.774 517.268 893.791 524.345 888.982 532.96 877.597 531.313 868.343 544.62 864.942 546.857 871.887 552.654 875.301 562.375 869.269 563.012 857.413 561.043 845.967 572.948 844.444 575.893 839.011 583.544 833.457 579.382 824.099 595.908 810.939 607.244 803.507 614.906 804.981 609.24 812.632 613.744 815.437 612.655 825.253 618.925 844.253 615.406 849.528 629.029 862.176 631.379 872.704 636.298 879.623 636.832 885.861 629.674 891.621 622.178 906.098 626.664 912.348 628.232 924.631 632.729 927.64 654.628 934.835 660.718 935.221 662.407 940.516 658.384 949.611 661.787 964.837 668.55 971.844 665.717 988.382 665.554 1002.039 662.588 1040.79 659.65 1095.564 658.96 1100.698 656.548 1106.33 650.082 1110.155 644.616 1108.895 630.561 1120.742 616.415 1128.814 614.457 1144.709 615.672 1154.691 613.5 1158.216 597.739 1155.465 568.62 1167.276 559.118 1168.031 546.61 1172.671 539.199 1181.29 528.231 1178.367 515.767 1159.464 509.304 1163.644 502.364 1162.162 499.295 1154.115 477.398 1154.363 465.99 1164.291 458.494 1162.709 455.875 1171.261 459.926 1179.591 442.316 1186.983 426.411 1196.576 z " id="polygon-22" class="region-18" stroke="#000000" stroke-width="1" style="fill:#66a61e"/>
<path gocart:regionname="Mullaitivu" d="M 231.252 296.443 200.81 298.927 175.777 299.335 176.185 283.671 182.497 267.046 190.828 263.442 189.65 249.682 192.905 244.312 190.009 234.169 182.764 223.048 181.553 202.353 190.383 203.161 188.901 189.021 195.68 182.835 205.905 180.202 211.005 181.942 225.1 178.342 247.279 181.187 253.695 178.531 254.15 167.881 290.25 166.017 294.737 155.425 296.628 145.954 304.527 154.803 312.312 158.99 314.11 144.688 320.442 140.997 323.571 129.047 326.646 127.922 341.558 140.319 340.251 145.764 346.402 152.151 357.497 155.908 367.005 165.11 382.672 176.563 390.226 184.919 401.047 205.853 407.491 227.068 435.222 277.567 429.156 276.349 419.632 266.402 411.794 274.384 417.584 280.484 428.599 285.767 409.139 296.002 396.874 295.702 392.0 298.183 377.297 300.595 374.299 304.032 381.442 279.266 358.129 265.274 346.808 272.469 349.375 257.527 346.249 254.593 335.835 255.943 333.858 242.912 314.16 239.985 313.355 245.31 305.146 246.376 295.085 256.955 289.352 256.789 288.441 251.015 282.074 242.913 252.963 243.596 252.867 251.958 260.235 251.923 262.63 272.664 250.376 284.035 231.252 296.443 z " id="polygon-23" class="region-19" stroke="#000000" stroke-width="1" style="fill:#e7298a"/>
<path gocart:regionname="Nuwara Eliya" d="M 283.172 1015.448 288.192 1010.654 282.933 1002.166 281.602 994.678 261.908 987.767 265.659 967.141 261.717 963.395 273.639 952.54 272.219 948.979 275.58 945.973 285.694 953.72 289.915 964.598 297.664 971.034 302.983 978.959 310.424 977.516 319.254 960.456 312.923 951.673 305.42 944.98 302.332 931.957 310.867 933.467 328.014 931.601 331.31 924.868 339.578 924.145 347.834 927.602 360.114 907.996 376.119 891.001 373.99 879.493 369.976 873.726 370.506 866.038 386.364 882.112 387.255 890.295 403.481 894.316 417.069 895.16 418.786 891.475 435.464 890.887 440.702 905.515 436.607 911.463 441.155 916.437 437.956 928.125 441.743 931.452 438.637 937.376 429.885 945.699 426.286 962.095 419.512 966.274 407.265 965.986 397.585 974.51 396.241 982.804 390.114 986.512 389.424 991.637 394.357 1000.353 393.085 1004.604 398.795 1010.728 392.156 1019.686 398.81 1022.187 394.404 1028.632 389.069 1028.914 382.229 1034.995 377.225 1033.51 366.747 1040.182 354.567 1041.402 338.513 1039.314 336.46 1042.677 309.443 1038.445 299.125 1034.402 293.957 1036.982 284.997 1033.495 281.149 1028.865 283.734 1024.06 283.172 1015.448 z " id="polygon-24" class="region-20" stroke="#000000" stroke-width="1" style="fill:#7570b3"/>
<path gocart:regionname="Polonnaruwa" d="M 534.571 708.721 532.077 713.812 533.604 729.412 528.323 731.402 525.407 739.896 519.984 735.109 493.549 725.791 485.062 713.496 476.427 711.609 469.866 715.648 449.591 714.698 426.959 719.234 414.014 716.939 409.528 725.593 399.962 724.651 398.268 728.371 378.694 729.503 373.349 708.432 375.317 687.482 384.353 686.61 387.502 678.35 392.348 646.474 396.75 636.928 390.816 626.237 378.713 631.644 379.036 622.667 371.043 616.488 369.273 612.388 376.379 600.976 371.602 594.371 372.147 569.784 381.103 551.149 381.729 542.51 387.307 526.555 418.662 525.869 423.324 510.337 427.637 506.787 433.226 504.887 447.02 516.043 449.39 528.347 464.784 526.415 479.292 528.844 488.181 533.954 500.604 532.645 506.691 539.65 521.657 543.404 521.016 553.963 525.036 559.921 523.215 570.284 532.044 566.16 533.078 556.054 539.959 544.173 550.142 532.323 557.517 535.153 558.91 539.513 556.841 588.42 556.376 610.588 567.703 634.928 567.748 641.669 556.182 641.383 550.657 638.599 545.756 641.915 538.453 642.085 533.004 647.684 533.063 658.198 530.227 662.867 531.763 670.558 529.027 680.227 529.754 693.887 534.571 708.721 z " id="polygon-25" class="region-21" stroke="#000000" stroke-width="1" style="fill:#e7298a"/>
<path gocart:regionname="Puttalam" d="M 63.234 865.791 58.968 846.71 54.986 823.418 49.318 800.966 44.785 775.043 43.897 753.541 48.784 745.853 48.089 722.191 43.651 696.925 28.909 637.175 17.398 600.997 17.801 589.355 16.041 582.215 16.933 563.626 13.061 549.147 20.626 547.017 37.486 538.422 28.277 551.902 32.01 558.125 29.176 569.198 24.86 573.506 27.546 584.498 25.937 591.63 32.562 598.97 27.469 614.919 30.726 622.156 45.407 627.451 59.543 626.074 59.296 611.521 46.88 598.254 54.018 586.91 55.816 578.746 60.974 573.876 58.09 566.452 56.067 551.706 50.941 544.37 57.254 524.668 61.757 519.045 60.092 510.685 64.418 500.367 63.818 477.081 71.134 467.24 72.597 441.048 89.343 433.575 91.224 429.241 95.55 431.994 110.001 433.566 127.593 442.273 131.141 452.644 127.214 463.372 121.665 471.706 112.792 477.692 108.919 485.699 101.433 487.354 100.378 495.773 107.639 505.476 110.882 522.416 115.188 534.988 116.222 543.498 125.791 544.018 129.405 541.059 137.58 546.46 141.657 545.43 150.967 554.151 149.965 563.809 152.745 569.802 155.102 587.101 159.45 593.553 168.003 597.735 165.731 606.84 166.773 621.129 161.215 630.287 166.313 639.661 141.205 648.826 138.601 662.562 130.265 665.235 128.029 673.608 123.132 674.426 115.453 684.467 116.718 695.807 113.928 701.376 116.333 706.862 108.231 713.972 100.206 717.743 104.097 726.461 101.694 730.907 94.451 728.513 90.147 736.682 89.088 743.965 84.295 748.076 82.467 761.44 82.758 776.692 91.519 826.892 95.013 841.881 96.066 865.596 90.675 863.883 85.152 868.127 72.289 863.628 63.234 865.791 z " id="polygon-26" class="region-22" stroke="#000000" stroke-width="1" style="fill:#e7298a"/>
<path gocart:regionname="Puttalam" d="M 37.818 517.91 33.88 521.699 35.536 532.501 28.897 531.827 34.73 517.946 37.818 517.91 z " id="polygon-27" class="region-22" stroke="#000000" stroke-width="1" style="fill:#e7298a"/>
<path gocart:regionname="Ratnapura" d="M 341.928 1193.126 339.191 1177.245 322.267 1179.873 324.911 1162.78 317.227 1162.194 295.753 1165.638 295.525 1170.105 282.851 1172.304 281.398 1168.063 264.337 1163.139 257.081 1163.903 244.523 1152.583 239.398 1143.289 218.719 1112.577 214.943 1105.875 221.376 1103.123 217.717 1094.94 210.211 1087.484 201.678 1084.64 197.195 1069.947 188.422 1062.869 184.021 1052.666 185.09 1048.977 180.492 1039.43 180.326 1031.647 176.308 1021.489 182.439 1021.482 183.949 1015.329 181.42 1008.905 176.037 1006.615 177.678 996.845 186.642 986.331 193.558 984.137 194.439 991.269 200.365 991.796 211.877 1007.371 220.349 1004.954 230.938 1015.992 239.315 1008.861 250.245 1006.13 260.438 1012.209 277.974 1015.816 283.172 1015.448 283.734 1024.06 281.149 1028.865 284.997 1033.495 293.957 1036.982 299.125 1034.402 309.443 1038.445 336.46 1042.677 338.513 1039.314 354.567 1041.402 366.747 1040.182 377.225 1033.51 382.229 1034.995 389.069 1028.914 388.791 1035.799 398.695 1045.015 404.518 1053.172 390.435 1058.072 395.893 1070.25 404.976 1074.342 414.982 1071.632 429.109 1064.183 423.79 1069.885 420.991 1080.416 411.702 1089.913 407.527 1110.244 395.366 1130.397 400.42 1142.421 398.28 1148.221 398.975 1160.783 410.136 1176.092 419.144 1178.764 426.411 1196.576 437.21 1215.362 423.183 1216.09 413.59 1213.292 409.639 1206.819 404.375 1204.543 395.271 1206.616 382.024 1205.538 363.003 1196.326 351.493 1192.47 341.928 1193.126 z " id="polygon-28" class="region-23" stroke="#000000" stroke-width="1" style="fill:#1b9e77"/>
<path gocart:regionname="Trincomalee" d="M 589.179 531.571 588.148 535.9 577.686 534.916 563.612 531.165 557.517 535.153 550.142 532.323 539.959 544.173 533.078 556.054 532.044 566.16 523.215 570.284 525.036 559.921 521.016 553.963 521.657 543.404 506.691 539.65 500.604 532.645 488.181 533.954 479.292 528.844 464.784 526.415 449.39 528.347 447.02 516.043 433.226 504.887 427.637 506.787 428.395 496.984 433.275 486.481 437.569 472.223 440.632 467.275 450.055 460.17 442.021 456.842 435.359 449.148 434.071 433.78 425.209 423.006 424.568 415.875 418.384 411.964 416.655 405.475 419.441 396.741 424.056 393.063 423.354 387.726 416.561 376.464 416.405 369.7 412.318 366.264 413.659 354.452 423.302 337.997 415.148 326.815 403.791 320.88 389.361 311.109 380.702 309.537 370.022 314.754 374.299 304.032 377.297 300.595 392.0 298.183 396.874 295.702 409.139 296.002 428.599 285.767 421.322 294.002 423.845 302.075 434.023 306.953 433.926 301.32 441.018 297.185 441.949 287.984 451.943 302.437 456.801 305.532 465.775 322.706 476.707 331.992 480.439 330.205 489.606 347.941 508.495 370.642 511.578 372.611 521.782 391.939 528.515 398.973 529.368 408.172 527.884 418.219 535.657 432.386 519.672 428.086 517.716 432.501 523.616 442.633 517.922 449.024 506.787 436.831 497.264 447.824 504.556 449.507 510.629 446.873 517.173 449.493 519.051 458.317 527.846 464.878 545.231 463.825 549.895 457.81 548.028 449.642 554.557 448.51 561.277 443.055 571.759 452.427 580.792 491.282 583.704 499.633 583.529 507.519 589.179 531.571 z " id="polygon-29" class="region-24" stroke="#000000" stroke-width="1" style="fill:#66a61e"/>
<path gocart:regionname="Vavuniya" d="M 195.938 390.581 179.145 369.901 173.966 366.284 177.256 359.161 183.822 361.641 186.527 353.846 194.08 340.731 216.858 343.34 223.613 339.852 241.7 336.716 252.183 330.985 251.466 324.396 247.014 314.926 245.012 304.656 240.535 300.208 231.252 296.443 250.376 284.035 262.63 272.664 260.235 251.923 252.867 251.958 252.963 243.596 282.074 242.913 288.441 251.015 289.352 256.789 295.085 256.955 305.146 246.376 313.355 245.31 314.16 239.985 333.858 242.912 335.835 255.943 346.249 254.593 349.375 257.527 346.808 272.469 358.129 265.274 381.442 279.266 374.299 304.032 370.022 314.754 357.28 316.714 341.282 326.16 334.055 327.286 317.027 326.727 315.821 333.726 326.573 337.106 335.805 349.146 324.776 366.296 319.632 368.521 308.459 383.933 287.183 398.112 274.491 389.146 268.105 386.573 254.832 397.718 250.466 406.892 244.157 413.603 244.529 423.3 235.276 426.833 230.096 436.06 213.742 431.113 208.165 413.255 199.809 411.588 196.509 407.961 195.938 390.581 z " id="polygon-30" class="region-25" stroke="#000000" stroke-width="1" style="fill:#e6ab02"/>
<text y="877.6481618946034" xml:space="preserve" x="638.6559161140628" style="font-size:18.6667px;line-height:1.25;font-family:sans-serif" inkscape:label="gocartlabel" id="text101"><tspan y="877.6481618946034" x="638.6559161140628" sodipodi:roll="line" id="tspan101">APR</tspan></text><text y="488.29431628303865" xml:space="preserve" x="288.90749880661303" style="font-size:18.6667px;line-height:1.25;font-family:sans-serif" inkscape:label="gocartlabel" id="text101"><tspan y="488.29431628303865" x="288.90749880661303" sodipodi:roll="line" id="tspan101">AD</tspan></text><text y="933.2278248627057" xml:space="preserve" x="468.72080913410946" style="font-size:18.6667px;line-height:1.25;font-family:sans-serif" inkscape:label="gocartlabel" id="text101"><tspan y="933.2278248627057" x="468.72080913410946" sodipodi:roll="line" id="tspan101">BD</tspan></text><text y="687.9718560634896" xml:space="preserve" x="613.8276014719459" style="font-size:18.6667px;line-height:1.25;font-family:sans-serif" inkscape:label="gocartlabel" id="text101"><tspan y="687.9718560634896" x="613.8276014719459" sodipodi:roll="line" id="tspan101">BC</tspan></text><text y="1002.7849201052454" xml:space="preserve" x="122.17116255821664" style="font-size:18.6667px;line-height:1.25;font-family:sans-serif" inkscape:label="gocartlabel" id="text101"><tspan y="1002.7849201052454" x="122.17116255821664" sodipodi:roll="line" id="tspan101">CO</tspan></text><text y="1220.8715741138135" xml:space="preserve" x="200.625408645881" style="font-size:18.6667px;line-height:1.25;font-family:sans-serif" inkscape:label="gocartlabel" id="text101"><tspan y="1220.8715741138135" x="200.625408645881" sodipodi:roll="line" id="tspan101">GL</tspan></text><text y="917.187953578352" xml:space="preserve" x="121.73881451612844" style="font-size:18.6667px;line-height:1.25;font-family:sans-serif" inkscape:label="gocartlabel" id="text101"><tspan y="917.187953578352" x="121.73881451612844" sodipodi:roll="line" id="tspan101">GQ</tspan></text><text y="1208.9070957488705" xml:space="preserve" x="485.88771192976856" style="font-size:18.6667px;line-height:1.25;font-family:sans-serif" inkscape:label="gocartlabel" id="text101"><tspan y="1208.9070957488705" x="485.88771192976856" sodipodi:roll="line" id="tspan101">HB</tspan></text><text y="41.34487280624499" xml:space="preserve" x="167.93000885465062" style="font-size:18.6667px;line-height:1.25;font-family:sans-serif" inkscape:label="gocartlabel" id="text101"><tspan y="41.34487280624499" x="167.93000885465062" sodipodi:roll="line" id="tspan101">JA</tspan></text><text y="1101.217329060543" xml:space="preserve" x="158.77386621818496" style="font-size:18.6667px;line-height:1.25;font-family:sans-serif" inkscape:label="gocartlabel" id="text101"><tspan y="1101.217329060543" x="158.77386621818496" sodipodi:roll="line" id="tspan101">KT</tspan></text><text y="866.4519295615581" xml:space="preserve" x="355.4008275550438" style="font-size:18.6667px;line-height:1.25;font-family:sans-serif" inkscape:label="gocartlabel" id="text101"><tspan y="866.4519295615581" x="355.4008275550438" sodipodi:roll="line" id="tspan101">KY</tspan></text><text y="923.3285583259448" xml:space="preserve" x="231.25920494852843" style="font-size:18.6667px;line-height:1.25;font-family:sans-serif" inkscape:label="gocartlabel" id="text101"><tspan y="923.3285583259448" x="231.25920494852843" sodipodi:roll="line" id="tspan101">KE</tspan></text><text y="140.58229919234088" xml:space="preserve" x="221.05576034579445" style="font-size:18.6667px;line-height:1.25;font-family:sans-serif" inkscape:label="gocartlabel" id="text101"><tspan y="140.58229919234088" x="221.05576034579445" sodipodi:roll="line" id="tspan101">KL</tspan></text><text y="734.124515270511" xml:space="preserve" x="195.97624397013908" style="font-size:18.6667px;line-height:1.25;font-family:sans-serif" inkscape:label="gocartlabel" id="text101"><tspan y="734.124515270511" x="195.97624397013908" sodipodi:roll="line" id="tspan101">KG</tspan></text><text y="323.8579043134438" xml:space="preserve" x="147.02586047327026" style="font-size:18.6667px;line-height:1.25;font-family:sans-serif" inkscape:label="gocartlabel" id="text101"><tspan y="323.8579043134438" x="147.02586047327026" sodipodi:roll="line" id="tspan101">MB</tspan></text><text y="732.7000449288141" xml:space="preserve" x="362.5597183920527" style="font-size:18.6667px;line-height:1.25;font-family:sans-serif" inkscape:label="gocartlabel" id="text101"><tspan y="732.7000449288141" x="362.5597183920527" sodipodi:roll="line" id="tspan101">MT</tspan></text><text y="1248.5478552454106" xml:space="preserve" x="297.93442777380204" style="font-size:18.6667px;line-height:1.25;font-family:sans-serif" inkscape:label="gocartlabel" id="text101"><tspan y="1248.5478552454106" x="297.93442777380204" sodipodi:roll="line" id="tspan101">MH</tspan></text><text y="1030.8032856059028" xml:space="preserve" x="555.9734499483448" style="font-size:18.6667px;line-height:1.25;font-family:sans-serif" inkscape:label="gocartlabel" id="text101"><tspan y="1030.8032856059028" x="555.9734499483448" sodipodi:roll="line" id="tspan101">MJ</tspan></text><text y="223.37357560515014" xml:space="preserve" x="298.8408576383853" style="font-size:18.6667px;line-height:1.25;font-family:sans-serif" inkscape:label="gocartlabel" id="text101"><tspan y="223.37357560515014" x="298.8408576383853" sodipodi:roll="line" id="tspan101">MP</tspan></text><text y="967.6154795071885" xml:space="preserve" x="356.36479122509354" style="font-size:18.6667px;line-height:1.25;font-family:sans-serif" inkscape:label="gocartlabel" id="text101"><tspan y="967.6154795071885" x="356.36479122509354" sodipodi:roll="line" id="tspan101">NW</tspan></text><text y="622.3661841420015" xml:space="preserve" x="462.0833738995801" style="font-size:18.6667px;line-height:1.25;font-family:sans-serif" inkscape:label="gocartlabel" id="text101"><tspan y="622.3661841420015" x="462.0833738995801" sodipodi:roll="line" id="tspan101">PR</tspan></text><text y="630.546049198623" xml:space="preserve" x="87.78260943448561" style="font-size:18.6667px;line-height:1.25;font-family:sans-serif" inkscape:label="gocartlabel" id="text101"><tspan y="630.546049198623" x="87.78260943448561" sodipodi:roll="line" id="tspan101">PX</tspan></text><text y="1098.1391371458215" xml:space="preserve" x="306.6608526842366" style="font-size:18.6667px;line-height:1.25;font-family:sans-serif" inkscape:label="gocartlabel" id="text101"><tspan y="1098.1391371458215" x="306.6608526842366" sodipodi:roll="line" id="tspan101">RN</tspan></text><text y="434.53935996998797" xml:space="preserve" x="484.70805379635345" style="font-size:18.6667px;line-height:1.25;font-family:sans-serif" inkscape:label="gocartlabel" id="text101"><tspan y="434.53935996998797" x="484.70805379635345" sodipodi:roll="line" id="tspan101">TC</tspan></text><text y="330.5202617085404" xml:space="preserve" x="278.90428422889573" style="font-size:18.6667px;line-height:1.25;font-family:sans-serif" inkscape:label="gocartlabel" id="text101"><tspan y="330.5202617085404" x="278.90428422889573" sodipodi:roll="line" id="tspan101">VA</tspan></text></svg>